<svg version="1.2" xmlns="http://www.w3.org/2000/svg" viewBox="0 0 500 449" width="500" height="449">
	<title>4338269_2270873-svg</title>
	<defs>
		<clipPath clipPathUnits="userSpaceOnUse" id="cp1">
			<path d="m350.21 114.01c0 1.92-1.56 3.47-3.48 3.47-1.92 0-3.48-1.55-3.48-3.47 0-1.92 1.56-3.48 3.48-3.48 1.92 0 3.48 1.56 3.48 3.48z"/>
		</clipPath>
		<clipPath clipPathUnits="userSpaceOnUse" id="cp2">
			<path d="m350.21 114.01c0 1.92-1.56 3.47-3.48 3.47-1.92 0-3.48-1.55-3.48-3.47 0-1.92 1.56-3.48 3.48-3.48 1.92 0 3.48 1.56 3.48 3.48z"/>
		</clipPath>
		<clipPath clipPathUnits="userSpaceOnUse" id="cp3">
			<path d="m350.21 114.01c0 1.92-1.56 3.47-3.48 3.47-1.92 0-3.48-1.55-3.48-3.47 0-1.92 1.56-3.48 3.48-3.48 1.92 0 3.48 1.56 3.48 3.48z"/>
		</clipPath>
		<clipPath clipPathUnits="userSpaceOnUse" id="cp4">
			<path d="m350.21 114.01c0 1.92-1.56 3.47-3.48 3.47-1.92 0-3.48-1.55-3.48-3.47 0-1.92 1.56-3.48 3.48-3.48 1.92 0 3.48 1.56 3.48 3.48z"/>
		</clipPath>
		<clipPath clipPathUnits="userSpaceOnUse" id="cp5">
			<path d="m350.21 114.01c0 1.92-1.56 3.47-3.48 3.47-1.92 0-3.48-1.55-3.48-3.47 0-1.92 1.56-3.48 3.48-3.48 1.92 0 3.48 1.56 3.48 3.48z"/>
		</clipPath>
		<clipPath clipPathUnits="userSpaceOnUse" id="cp6">
			<path d="m350.21 114.01c0 1.92-1.56 3.47-3.48 3.47-1.92 0-3.48-1.55-3.48-3.47 0-1.92 1.56-3.48 3.48-3.48 1.92 0 3.48 1.56 3.48 3.48z"/>
		</clipPath>
		<clipPath clipPathUnits="userSpaceOnUse" id="cp7">
			<path d="m350.21 114.01c0 1.92-1.56 3.47-3.48 3.47-1.92 0-3.48-1.55-3.48-3.47 0-1.92 1.56-3.48 3.48-3.48 1.92 0 3.48 1.56 3.48 3.48z"/>
		</clipPath>
		<clipPath clipPathUnits="userSpaceOnUse" id="cp8">
			<path d="m350.21 114.01c0 1.92-1.56 3.47-3.48 3.47-1.92 0-3.48-1.55-3.48-3.47 0-1.92 1.56-3.48 3.48-3.48 1.92 0 3.48 1.56 3.48 3.48z"/>
		</clipPath>
		<clipPath clipPathUnits="userSpaceOnUse" id="cp9">
			<path d="m350.21 114.01c0 1.92-1.56 3.47-3.48 3.47-1.92 0-3.48-1.55-3.48-3.47 0-1.92 1.56-3.48 3.48-3.48 1.92 0 3.48 1.56 3.48 3.48z"/>
		</clipPath>
		<clipPath clipPathUnits="userSpaceOnUse" id="cp10">
			<path d="m350.21 114.01c0 1.92-1.56 3.47-3.48 3.47-1.92 0-3.48-1.55-3.48-3.47 0-1.92 1.56-3.48 3.48-3.48 1.92 0 3.48 1.56 3.48 3.48z"/>
		</clipPath>
		<clipPath clipPathUnits="userSpaceOnUse" id="cp11">
			<path d="m350.21 114.01c0 1.92-1.56 3.47-3.48 3.47-1.92 0-3.48-1.55-3.48-3.47 0-1.92 1.56-3.48 3.48-3.48 1.92 0 3.48 1.56 3.48 3.48z"/>
		</clipPath>
		<clipPath clipPathUnits="userSpaceOnUse" id="cp12">
			<path d="m350.21 114.01c0 1.92-1.56 3.47-3.48 3.47-1.92 0-3.48-1.55-3.48-3.47 0-1.92 1.56-3.48 3.48-3.48 1.92 0 3.48 1.56 3.48 3.48z"/>
		</clipPath>
		<clipPath clipPathUnits="userSpaceOnUse" id="cp13">
			<path d="m350.21 114.01c0 1.92-1.56 3.47-3.48 3.47-1.92 0-3.48-1.55-3.48-3.47 0-1.92 1.56-3.48 3.48-3.48 1.92 0 3.48 1.56 3.48 3.48z"/>
		</clipPath>
		<clipPath clipPathUnits="userSpaceOnUse" id="cp14">
			<path d="m350.21 114.01c0 1.92-1.56 3.47-3.48 3.47-1.92 0-3.48-1.55-3.48-3.47 0-1.92 1.56-3.48 3.48-3.48 1.92 0 3.48 1.56 3.48 3.48z"/>
		</clipPath>
		<clipPath clipPathUnits="userSpaceOnUse" id="cp15">
			<path d="m350.21 114.01c0 1.92-1.56 3.47-3.48 3.47-1.92 0-3.48-1.55-3.48-3.47 0-1.92 1.56-3.48 3.48-3.48 1.92 0 3.48 1.56 3.48 3.48z"/>
		</clipPath>
		<clipPath clipPathUnits="userSpaceOnUse" id="cp16">
			<path d="m350.21 114.01c0 1.92-1.56 3.47-3.48 3.47-1.92 0-3.48-1.55-3.48-3.47 0-1.92 1.56-3.48 3.48-3.48 1.92 0 3.48 1.56 3.48 3.48z"/>
		</clipPath>
		<clipPath clipPathUnits="userSpaceOnUse" id="cp17">
			<path d="m350.21 114.01c0 1.92-1.56 3.47-3.48 3.47-1.92 0-3.48-1.55-3.48-3.47 0-1.92 1.56-3.48 3.48-3.48 1.92 0 3.48 1.56 3.48 3.48z"/>
		</clipPath>
		<clipPath clipPathUnits="userSpaceOnUse" id="cp18">
			<path d="m350.21 114.01c0 1.92-1.56 3.47-3.48 3.47-1.92 0-3.48-1.55-3.48-3.47 0-1.92 1.56-3.48 3.48-3.48 1.92 0 3.48 1.56 3.48 3.48z"/>
		</clipPath>
		<clipPath clipPathUnits="userSpaceOnUse" id="cp19">
			<path d="m350.21 114.01c0 1.92-1.56 3.47-3.48 3.47-1.92 0-3.48-1.55-3.48-3.47 0-1.92 1.56-3.48 3.48-3.48 1.92 0 3.48 1.56 3.48 3.48z"/>
		</clipPath>
		<clipPath clipPathUnits="userSpaceOnUse" id="cp20">
			<path d="m350.21 114.01c0 1.92-1.56 3.47-3.48 3.47-1.92 0-3.48-1.55-3.48-3.47 0-1.92 1.56-3.48 3.48-3.48 1.92 0 3.48 1.56 3.48 3.48z"/>
		</clipPath>
		<clipPath clipPathUnits="userSpaceOnUse" id="cp21">
			<path d="m350.21 114.01c0 1.92-1.56 3.47-3.48 3.47-1.92 0-3.48-1.55-3.48-3.47 0-1.92 1.56-3.48 3.48-3.48 1.92 0 3.48 1.56 3.48 3.48z"/>
		</clipPath>
		<clipPath clipPathUnits="userSpaceOnUse" id="cp22">
			<path d="m350.21 114.01c0 1.92-1.56 3.47-3.48 3.47-1.92 0-3.48-1.55-3.48-3.47 0-1.92 1.56-3.48 3.48-3.48 1.92 0 3.48 1.56 3.48 3.48z"/>
		</clipPath>
		<clipPath clipPathUnits="userSpaceOnUse" id="cp23">
			<path d="m350.21 114.01c0 1.92-1.56 3.47-3.48 3.47-1.92 0-3.48-1.55-3.48-3.47 0-1.92 1.56-3.48 3.48-3.48 1.92 0 3.48 1.56 3.48 3.48z"/>
		</clipPath>
		<clipPath clipPathUnits="userSpaceOnUse" id="cp24">
			<path d="m350.21 114.01c0 1.92-1.56 3.47-3.48 3.47-1.92 0-3.48-1.55-3.48-3.47 0-1.92 1.56-3.48 3.48-3.48 1.92 0 3.48 1.56 3.48 3.48z"/>
		</clipPath>
		<clipPath clipPathUnits="userSpaceOnUse" id="cp25">
			<path d="m350.21 114.01c0 1.92-1.56 3.47-3.48 3.47-1.92 0-3.48-1.55-3.48-3.47 0-1.92 1.56-3.48 3.48-3.48 1.92 0 3.48 1.56 3.48 3.48z"/>
		</clipPath>
		<clipPath clipPathUnits="userSpaceOnUse" id="cp26">
			<path d="m350.21 114.01c0 1.92-1.56 3.47-3.48 3.47-1.92 0-3.48-1.55-3.48-3.47 0-1.92 1.56-3.48 3.48-3.48 1.92 0 3.48 1.56 3.48 3.48z"/>
		</clipPath>
		<clipPath clipPathUnits="userSpaceOnUse" id="cp27">
			<path d="m350.21 114.01c0 1.92-1.56 3.47-3.48 3.47-1.92 0-3.48-1.55-3.48-3.47 0-1.92 1.56-3.48 3.48-3.48 1.92 0 3.48 1.56 3.48 3.48z"/>
		</clipPath>
		<clipPath clipPathUnits="userSpaceOnUse" id="cp28">
			<path d="m350.21 114.01c0 1.92-1.56 3.47-3.48 3.47-1.92 0-3.48-1.55-3.48-3.47 0-1.92 1.56-3.48 3.48-3.48 1.92 0 3.48 1.56 3.48 3.48z"/>
		</clipPath>
		<clipPath clipPathUnits="userSpaceOnUse" id="cp29">
			<path d="m350.21 114.01c0 1.92-1.56 3.47-3.48 3.47-1.92 0-3.48-1.55-3.48-3.47 0-1.92 1.56-3.48 3.48-3.48 1.92 0 3.48 1.56 3.48 3.48z"/>
		</clipPath>
		<clipPath clipPathUnits="userSpaceOnUse" id="cp30">
			<path d="m350.21 114.01c0 1.92-1.56 3.47-3.48 3.47-1.92 0-3.48-1.55-3.48-3.47 0-1.92 1.56-3.48 3.48-3.48 1.92 0 3.48 1.56 3.48 3.48z"/>
		</clipPath>
		<clipPath clipPathUnits="userSpaceOnUse" id="cp31">
			<path d="m350.21 114.01c0 1.92-1.56 3.47-3.48 3.47-1.92 0-3.48-1.55-3.48-3.47 0-1.92 1.56-3.48 3.48-3.48 1.92 0 3.48 1.56 3.48 3.48z"/>
		</clipPath>
		<clipPath clipPathUnits="userSpaceOnUse" id="cp32">
			<path d="m350.21 114.01c0 1.92-1.56 3.47-3.48 3.47-1.92 0-3.48-1.55-3.48-3.47 0-1.92 1.56-3.48 3.48-3.48 1.92 0 3.48 1.56 3.48 3.48z"/>
		</clipPath>
		<clipPath clipPathUnits="userSpaceOnUse" id="cp33">
			<path d="m350.21 114.01c0 1.92-1.56 3.47-3.48 3.47-1.92 0-3.48-1.55-3.48-3.47 0-1.92 1.56-3.48 3.48-3.48 1.92 0 3.48 1.56 3.48 3.48z"/>
		</clipPath>
		<clipPath clipPathUnits="userSpaceOnUse" id="cp34">
			<path d="m350.21 114.01c0 1.92-1.56 3.47-3.48 3.47-1.92 0-3.48-1.55-3.48-3.47 0-1.92 1.56-3.48 3.48-3.48 1.92 0 3.48 1.56 3.48 3.48z"/>
		</clipPath>
		<clipPath clipPathUnits="userSpaceOnUse" id="cp35">
			<path d="m350.21 114.01c0 1.92-1.56 3.47-3.48 3.47-1.92 0-3.48-1.55-3.48-3.47 0-1.92 1.56-3.48 3.48-3.48 1.92 0 3.48 1.56 3.48 3.48z"/>
		</clipPath>
		<clipPath clipPathUnits="userSpaceOnUse" id="cp36">
			<path d="m350.21 114.01c0 1.92-1.56 3.47-3.48 3.47-1.92 0-3.48-1.55-3.48-3.47 0-1.92 1.56-3.48 3.48-3.48 1.92 0 3.48 1.56 3.48 3.48z"/>
		</clipPath>
		<clipPath clipPathUnits="userSpaceOnUse" id="cp37">
			<path d="m350.21 114.01c0 1.92-1.56 3.47-3.48 3.47-1.92 0-3.48-1.55-3.48-3.47 0-1.92 1.56-3.48 3.48-3.48 1.92 0 3.48 1.56 3.48 3.48z"/>
		</clipPath>
		<clipPath clipPathUnits="userSpaceOnUse" id="cp38">
			<path d="m350.21 114.01c0 1.92-1.56 3.47-3.48 3.47-1.92 0-3.48-1.55-3.48-3.47 0-1.92 1.56-3.48 3.48-3.48 1.92 0 3.48 1.56 3.48 3.48z"/>
		</clipPath>
		<clipPath clipPathUnits="userSpaceOnUse" id="cp39">
			<path d="m350.21 114.01c0 1.92-1.56 3.47-3.48 3.47-1.92 0-3.48-1.55-3.48-3.47 0-1.92 1.56-3.48 3.48-3.48 1.92 0 3.48 1.56 3.48 3.48z"/>
		</clipPath>
		<clipPath clipPathUnits="userSpaceOnUse" id="cp40">
			<path d="m350.21 114.01c0 1.92-1.56 3.47-3.48 3.47-1.92 0-3.48-1.55-3.48-3.47 0-1.92 1.56-3.48 3.48-3.48 1.92 0 3.48 1.56 3.48 3.48z"/>
		</clipPath>
		<clipPath clipPathUnits="userSpaceOnUse" id="cp41">
			<path d="m350.21 114.01c0 1.92-1.56 3.47-3.48 3.47-1.92 0-3.48-1.55-3.48-3.47 0-1.92 1.56-3.48 3.48-3.48 1.92 0 3.48 1.56 3.48 3.48z"/>
		</clipPath>
		<clipPath clipPathUnits="userSpaceOnUse" id="cp42">
			<path d="m350.21 114.01c0 1.92-1.56 3.47-3.48 3.47-1.92 0-3.48-1.55-3.48-3.47 0-1.92 1.56-3.48 3.48-3.48 1.92 0 3.48 1.56 3.48 3.48z"/>
		</clipPath>
		<clipPath clipPathUnits="userSpaceOnUse" id="cp43">
			<path d="m350.21 114.01c0 1.92-1.56 3.47-3.48 3.47-1.92 0-3.48-1.55-3.48-3.47 0-1.92 1.56-3.48 3.48-3.48 1.92 0 3.48 1.56 3.48 3.48z"/>
		</clipPath>
		<clipPath clipPathUnits="userSpaceOnUse" id="cp44">
			<path d="m350.21 114.01c0 1.92-1.56 3.47-3.48 3.47-1.92 0-3.48-1.55-3.48-3.47 0-1.92 1.56-3.48 3.48-3.48 1.92 0 3.48 1.56 3.48 3.48z"/>
		</clipPath>
		<clipPath clipPathUnits="userSpaceOnUse" id="cp45">
			<path d="m350.21 114.01c0 1.92-1.56 3.47-3.48 3.47-1.92 0-3.48-1.55-3.48-3.47 0-1.92 1.56-3.48 3.48-3.48 1.92 0 3.48 1.56 3.48 3.48z"/>
		</clipPath>
		<clipPath clipPathUnits="userSpaceOnUse" id="cp46">
			<path d="m384.16 147.47c0 1.92-1.55 3.47-3.47 3.47-1.92 0-3.48-1.55-3.48-3.47 0-1.92 1.56-3.48 3.48-3.48 1.92 0 3.47 1.56 3.47 3.48z"/>
		</clipPath>
		<clipPath clipPathUnits="userSpaceOnUse" id="cp47">
			<path d="m384.16 147.47c0 1.92-1.55 3.47-3.47 3.47-1.92 0-3.48-1.55-3.48-3.47 0-1.92 1.56-3.48 3.48-3.48 1.92 0 3.47 1.56 3.47 3.48z"/>
		</clipPath>
		<clipPath clipPathUnits="userSpaceOnUse" id="cp48">
			<path d="m384.16 147.47c0 1.92-1.55 3.47-3.47 3.47-1.92 0-3.48-1.55-3.48-3.47 0-1.92 1.56-3.48 3.48-3.48 1.92 0 3.47 1.56 3.47 3.48z"/>
		</clipPath>
		<clipPath clipPathUnits="userSpaceOnUse" id="cp49">
			<path d="m384.16 147.47c0 1.92-1.55 3.47-3.47 3.47-1.92 0-3.48-1.55-3.48-3.47 0-1.92 1.56-3.48 3.48-3.48 1.92 0 3.47 1.56 3.47 3.48z"/>
		</clipPath>
		<clipPath clipPathUnits="userSpaceOnUse" id="cp50">
			<path d="m384.16 147.47c0 1.92-1.55 3.47-3.47 3.47-1.92 0-3.48-1.55-3.48-3.47 0-1.92 1.56-3.48 3.48-3.48 1.92 0 3.47 1.56 3.47 3.48z"/>
		</clipPath>
		<clipPath clipPathUnits="userSpaceOnUse" id="cp51">
			<path d="m384.16 147.47c0 1.92-1.55 3.47-3.47 3.47-1.92 0-3.48-1.55-3.48-3.47 0-1.92 1.56-3.48 3.48-3.48 1.92 0 3.47 1.56 3.47 3.48z"/>
		</clipPath>
		<clipPath clipPathUnits="userSpaceOnUse" id="cp52">
			<path d="m384.16 147.47c0 1.92-1.55 3.47-3.47 3.47-1.92 0-3.48-1.55-3.48-3.47 0-1.92 1.56-3.48 3.48-3.48 1.92 0 3.47 1.56 3.47 3.48z"/>
		</clipPath>
		<clipPath clipPathUnits="userSpaceOnUse" id="cp53">
			<path d="m384.16 147.47c0 1.92-1.55 3.47-3.47 3.47-1.92 0-3.48-1.55-3.48-3.47 0-1.92 1.56-3.48 3.48-3.48 1.92 0 3.47 1.56 3.47 3.48z"/>
		</clipPath>
		<clipPath clipPathUnits="userSpaceOnUse" id="cp54">
			<path d="m384.16 147.47c0 1.92-1.55 3.47-3.47 3.47-1.92 0-3.48-1.55-3.48-3.47 0-1.92 1.56-3.48 3.48-3.48 1.92 0 3.47 1.56 3.47 3.48z"/>
		</clipPath>
		<clipPath clipPathUnits="userSpaceOnUse" id="cp55">
			<path d="m384.16 147.47c0 1.92-1.55 3.47-3.47 3.47-1.92 0-3.48-1.55-3.48-3.47 0-1.92 1.56-3.48 3.48-3.48 1.92 0 3.47 1.56 3.47 3.48z"/>
		</clipPath>
		<clipPath clipPathUnits="userSpaceOnUse" id="cp56">
			<path d="m384.16 147.47c0 1.92-1.55 3.47-3.47 3.47-1.92 0-3.48-1.55-3.48-3.47 0-1.92 1.56-3.48 3.48-3.48 1.92 0 3.47 1.56 3.47 3.48z"/>
		</clipPath>
		<clipPath clipPathUnits="userSpaceOnUse" id="cp57">
			<path d="m384.16 147.47c0 1.92-1.55 3.47-3.47 3.47-1.92 0-3.48-1.55-3.48-3.47 0-1.92 1.56-3.48 3.48-3.48 1.92 0 3.47 1.56 3.47 3.48z"/>
		</clipPath>
		<clipPath clipPathUnits="userSpaceOnUse" id="cp58">
			<path d="m384.16 147.47c0 1.92-1.55 3.47-3.47 3.47-1.92 0-3.48-1.55-3.48-3.47 0-1.92 1.56-3.48 3.48-3.48 1.92 0 3.47 1.56 3.47 3.48z"/>
		</clipPath>
		<clipPath clipPathUnits="userSpaceOnUse" id="cp59">
			<path d="m384.16 147.47c0 1.92-1.55 3.47-3.47 3.47-1.92 0-3.48-1.55-3.48-3.47 0-1.92 1.56-3.48 3.48-3.48 1.92 0 3.47 1.56 3.47 3.48z"/>
		</clipPath>
		<clipPath clipPathUnits="userSpaceOnUse" id="cp60">
			<path d="m384.16 147.47c0 1.92-1.55 3.47-3.47 3.47-1.92 0-3.48-1.55-3.48-3.47 0-1.92 1.56-3.48 3.48-3.48 1.92 0 3.47 1.56 3.47 3.48z"/>
		</clipPath>
		<clipPath clipPathUnits="userSpaceOnUse" id="cp61">
			<path d="m384.16 147.47c0 1.92-1.55 3.47-3.47 3.47-1.92 0-3.48-1.55-3.48-3.47 0-1.92 1.56-3.48 3.48-3.48 1.92 0 3.47 1.56 3.47 3.48z"/>
		</clipPath>
		<clipPath clipPathUnits="userSpaceOnUse" id="cp62">
			<path d="m384.16 147.47c0 1.92-1.55 3.47-3.47 3.47-1.92 0-3.48-1.55-3.48-3.47 0-1.92 1.56-3.48 3.48-3.48 1.92 0 3.47 1.56 3.47 3.48z"/>
		</clipPath>
		<clipPath clipPathUnits="userSpaceOnUse" id="cp63">
			<path d="m384.16 147.47c0 1.92-1.55 3.47-3.47 3.47-1.92 0-3.48-1.55-3.48-3.47 0-1.92 1.56-3.48 3.48-3.48 1.92 0 3.47 1.56 3.47 3.48z"/>
		</clipPath>
		<clipPath clipPathUnits="userSpaceOnUse" id="cp64">
			<path d="m384.16 147.47c0 1.92-1.55 3.47-3.47 3.47-1.92 0-3.48-1.55-3.48-3.47 0-1.92 1.56-3.48 3.48-3.48 1.92 0 3.47 1.56 3.47 3.48z"/>
		</clipPath>
		<clipPath clipPathUnits="userSpaceOnUse" id="cp65">
			<path d="m384.16 147.47c0 1.92-1.55 3.47-3.47 3.47-1.92 0-3.48-1.55-3.48-3.47 0-1.92 1.56-3.48 3.48-3.48 1.92 0 3.47 1.56 3.47 3.48z"/>
		</clipPath>
		<clipPath clipPathUnits="userSpaceOnUse" id="cp66">
			<path d="m384.16 147.47c0 1.92-1.55 3.47-3.47 3.47-1.92 0-3.48-1.55-3.48-3.47 0-1.92 1.56-3.48 3.48-3.48 1.92 0 3.47 1.56 3.47 3.48z"/>
		</clipPath>
		<clipPath clipPathUnits="userSpaceOnUse" id="cp67">
			<path d="m384.16 147.47c0 1.92-1.55 3.47-3.47 3.47-1.92 0-3.48-1.55-3.48-3.47 0-1.92 1.56-3.48 3.48-3.48 1.92 0 3.47 1.56 3.47 3.48z"/>
		</clipPath>
		<clipPath clipPathUnits="userSpaceOnUse" id="cp68">
			<path d="m384.16 147.47c0 1.92-1.55 3.47-3.47 3.47-1.92 0-3.48-1.55-3.48-3.47 0-1.92 1.56-3.48 3.48-3.48 1.92 0 3.47 1.56 3.47 3.48z"/>
		</clipPath>
		<clipPath clipPathUnits="userSpaceOnUse" id="cp69">
			<path d="m384.16 147.47c0 1.92-1.55 3.47-3.47 3.47-1.92 0-3.48-1.55-3.48-3.47 0-1.92 1.56-3.48 3.48-3.48 1.92 0 3.47 1.56 3.47 3.48z"/>
		</clipPath>
		<clipPath clipPathUnits="userSpaceOnUse" id="cp70">
			<path d="m384.16 147.47c0 1.92-1.55 3.47-3.47 3.47-1.92 0-3.48-1.55-3.48-3.47 0-1.92 1.56-3.48 3.48-3.48 1.92 0 3.47 1.56 3.47 3.48z"/>
		</clipPath>
		<clipPath clipPathUnits="userSpaceOnUse" id="cp71">
			<path d="m384.16 147.47c0 1.92-1.55 3.47-3.47 3.47-1.92 0-3.48-1.55-3.48-3.47 0-1.92 1.56-3.48 3.48-3.48 1.92 0 3.47 1.56 3.47 3.48z"/>
		</clipPath>
		<clipPath clipPathUnits="userSpaceOnUse" id="cp72">
			<path d="m384.16 147.47c0 1.92-1.55 3.47-3.47 3.47-1.92 0-3.48-1.55-3.48-3.47 0-1.92 1.56-3.48 3.48-3.48 1.92 0 3.47 1.56 3.47 3.48z"/>
		</clipPath>
		<clipPath clipPathUnits="userSpaceOnUse" id="cp73">
			<path d="m384.16 147.47c0 1.92-1.55 3.47-3.47 3.47-1.92 0-3.48-1.55-3.48-3.47 0-1.92 1.56-3.48 3.48-3.48 1.92 0 3.47 1.56 3.47 3.48z"/>
		</clipPath>
		<clipPath clipPathUnits="userSpaceOnUse" id="cp74">
			<path d="m384.16 147.47c0 1.92-1.55 3.47-3.47 3.47-1.92 0-3.48-1.55-3.48-3.47 0-1.92 1.56-3.48 3.48-3.48 1.92 0 3.47 1.56 3.47 3.48z"/>
		</clipPath>
		<clipPath clipPathUnits="userSpaceOnUse" id="cp75">
			<path d="m384.16 147.47c0 1.92-1.55 3.47-3.47 3.47-1.92 0-3.48-1.55-3.48-3.47 0-1.92 1.56-3.48 3.48-3.48 1.92 0 3.47 1.56 3.47 3.48z"/>
		</clipPath>
		<clipPath clipPathUnits="userSpaceOnUse" id="cp76">
			<path d="m384.16 147.47c0 1.92-1.55 3.47-3.47 3.47-1.92 0-3.48-1.55-3.48-3.47 0-1.92 1.56-3.48 3.48-3.48 1.92 0 3.47 1.56 3.47 3.48z"/>
		</clipPath>
		<clipPath clipPathUnits="userSpaceOnUse" id="cp77">
			<path d="m384.16 147.47c0 1.92-1.55 3.47-3.47 3.47-1.92 0-3.48-1.55-3.48-3.47 0-1.92 1.56-3.48 3.48-3.48 1.92 0 3.47 1.56 3.47 3.48z"/>
		</clipPath>
		<clipPath clipPathUnits="userSpaceOnUse" id="cp78">
			<path d="m384.16 147.47c0 1.92-1.55 3.47-3.47 3.47-1.92 0-3.48-1.55-3.48-3.47 0-1.92 1.56-3.48 3.48-3.48 1.92 0 3.47 1.56 3.47 3.48z"/>
		</clipPath>
		<clipPath clipPathUnits="userSpaceOnUse" id="cp79">
			<path d="m384.16 147.47c0 1.92-1.55 3.47-3.47 3.47-1.92 0-3.48-1.55-3.48-3.47 0-1.92 1.56-3.48 3.48-3.48 1.92 0 3.47 1.56 3.47 3.48z"/>
		</clipPath>
		<clipPath clipPathUnits="userSpaceOnUse" id="cp80">
			<path d="m384.16 147.47c0 1.92-1.55 3.47-3.47 3.47-1.92 0-3.48-1.55-3.48-3.47 0-1.92 1.56-3.48 3.48-3.48 1.92 0 3.47 1.56 3.47 3.48z"/>
		</clipPath>
		<clipPath clipPathUnits="userSpaceOnUse" id="cp81">
			<path d="m384.16 147.47c0 1.92-1.55 3.47-3.47 3.47-1.92 0-3.48-1.55-3.48-3.47 0-1.92 1.56-3.48 3.48-3.48 1.92 0 3.47 1.56 3.47 3.48z"/>
		</clipPath>
		<clipPath clipPathUnits="userSpaceOnUse" id="cp82">
			<path d="m384.16 147.47c0 1.92-1.55 3.47-3.47 3.47-1.92 0-3.48-1.55-3.48-3.47 0-1.92 1.56-3.48 3.48-3.48 1.92 0 3.47 1.56 3.47 3.48z"/>
		</clipPath>
		<clipPath clipPathUnits="userSpaceOnUse" id="cp83">
			<path d="m384.16 147.47c0 1.92-1.55 3.47-3.47 3.47-1.92 0-3.48-1.55-3.48-3.47 0-1.92 1.56-3.48 3.48-3.48 1.92 0 3.47 1.56 3.47 3.48z"/>
		</clipPath>
		<clipPath clipPathUnits="userSpaceOnUse" id="cp84">
			<path d="m384.16 147.47c0 1.92-1.55 3.47-3.47 3.47-1.92 0-3.48-1.55-3.48-3.47 0-1.92 1.56-3.48 3.48-3.48 1.92 0 3.47 1.56 3.47 3.48z"/>
		</clipPath>
		<clipPath clipPathUnits="userSpaceOnUse" id="cp85">
			<path d="m384.16 147.47c0 1.92-1.55 3.47-3.47 3.47-1.92 0-3.48-1.55-3.48-3.47 0-1.92 1.56-3.48 3.48-3.48 1.92 0 3.47 1.56 3.47 3.48z"/>
		</clipPath>
		<clipPath clipPathUnits="userSpaceOnUse" id="cp86">
			<path d="m384.16 147.47c0 1.92-1.55 3.47-3.47 3.47-1.92 0-3.48-1.55-3.48-3.47 0-1.92 1.56-3.48 3.48-3.48 1.92 0 3.47 1.56 3.47 3.48z"/>
		</clipPath>
		<clipPath clipPathUnits="userSpaceOnUse" id="cp87">
			<path d="m384.16 147.47c0 1.92-1.55 3.47-3.47 3.47-1.92 0-3.48-1.55-3.48-3.47 0-1.92 1.56-3.48 3.48-3.48 1.92 0 3.47 1.56 3.47 3.48z"/>
		</clipPath>
		<clipPath clipPathUnits="userSpaceOnUse" id="cp88">
			<path d="m384.16 147.47c0 1.92-1.55 3.47-3.47 3.47-1.92 0-3.48-1.55-3.48-3.47 0-1.92 1.56-3.48 3.48-3.48 1.92 0 3.47 1.56 3.47 3.48z"/>
		</clipPath>
		<clipPath clipPathUnits="userSpaceOnUse" id="cp89">
			<path d="m384.16 147.47c0 1.92-1.55 3.47-3.47 3.47-1.92 0-3.48-1.55-3.48-3.47 0-1.92 1.56-3.48 3.48-3.48 1.92 0 3.47 1.56 3.47 3.48z"/>
		</clipPath>
		<clipPath clipPathUnits="userSpaceOnUse" id="cp90">
			<path d="m384.16 147.47c0 1.92-1.55 3.47-3.47 3.47-1.92 0-3.48-1.55-3.48-3.47 0-1.92 1.56-3.48 3.48-3.48 1.92 0 3.47 1.56 3.47 3.48z"/>
		</clipPath>
		<clipPath clipPathUnits="userSpaceOnUse" id="cp91">
			<path d="m308.31 155.58c0 1.92-1.56 3.48-3.48 3.48-1.92 0-3.47-1.56-3.47-3.48 0-1.92 1.55-3.48 3.47-3.48 1.92 0 3.48 1.56 3.48 3.48z"/>
		</clipPath>
		<clipPath clipPathUnits="userSpaceOnUse" id="cp92">
			<path d="m308.31 155.58c0 1.92-1.56 3.48-3.48 3.48-1.92 0-3.47-1.56-3.47-3.48 0-1.92 1.55-3.48 3.47-3.48 1.92 0 3.48 1.56 3.48 3.48z"/>
		</clipPath>
		<clipPath clipPathUnits="userSpaceOnUse" id="cp93">
			<path d="m308.31 155.58c0 1.92-1.56 3.48-3.48 3.48-1.92 0-3.47-1.56-3.47-3.48 0-1.92 1.55-3.48 3.47-3.48 1.92 0 3.48 1.56 3.48 3.48z"/>
		</clipPath>
		<clipPath clipPathUnits="userSpaceOnUse" id="cp94">
			<path d="m308.31 155.58c0 1.92-1.56 3.48-3.48 3.48-1.92 0-3.47-1.56-3.47-3.48 0-1.92 1.55-3.48 3.47-3.48 1.92 0 3.48 1.56 3.48 3.48z"/>
		</clipPath>
		<clipPath clipPathUnits="userSpaceOnUse" id="cp95">
			<path d="m308.31 155.58c0 1.92-1.56 3.48-3.48 3.48-1.92 0-3.47-1.56-3.47-3.48 0-1.92 1.55-3.48 3.47-3.48 1.92 0 3.48 1.56 3.48 3.48z"/>
		</clipPath>
		<clipPath clipPathUnits="userSpaceOnUse" id="cp96">
			<path d="m308.31 155.58c0 1.92-1.56 3.48-3.48 3.48-1.92 0-3.47-1.56-3.47-3.48 0-1.92 1.55-3.48 3.47-3.48 1.92 0 3.48 1.56 3.48 3.48z"/>
		</clipPath>
		<clipPath clipPathUnits="userSpaceOnUse" id="cp97">
			<path d="m308.31 155.58c0 1.92-1.56 3.48-3.48 3.48-1.92 0-3.47-1.56-3.47-3.48 0-1.92 1.55-3.48 3.47-3.48 1.92 0 3.48 1.56 3.48 3.48z"/>
		</clipPath>
		<clipPath clipPathUnits="userSpaceOnUse" id="cp98">
			<path d="m308.31 155.58c0 1.92-1.56 3.48-3.48 3.48-1.92 0-3.47-1.56-3.47-3.48 0-1.92 1.55-3.48 3.47-3.48 1.92 0 3.48 1.56 3.48 3.48z"/>
		</clipPath>
		<clipPath clipPathUnits="userSpaceOnUse" id="cp99">
			<path d="m308.31 155.58c0 1.92-1.56 3.48-3.48 3.48-1.92 0-3.47-1.56-3.47-3.48 0-1.92 1.55-3.48 3.47-3.48 1.92 0 3.48 1.56 3.48 3.48z"/>
		</clipPath>
		<clipPath clipPathUnits="userSpaceOnUse" id="cp100">
			<path d="m308.31 155.58c0 1.92-1.56 3.48-3.48 3.48-1.92 0-3.47-1.56-3.47-3.48 0-1.92 1.55-3.48 3.47-3.48 1.92 0 3.48 1.56 3.48 3.48z"/>
		</clipPath>
		<clipPath clipPathUnits="userSpaceOnUse" id="cp101">
			<path d="m308.31 155.58c0 1.92-1.56 3.48-3.48 3.48-1.92 0-3.47-1.56-3.47-3.48 0-1.92 1.55-3.48 3.47-3.48 1.92 0 3.48 1.56 3.48 3.48z"/>
		</clipPath>
		<clipPath clipPathUnits="userSpaceOnUse" id="cp102">
			<path d="m308.31 155.58c0 1.92-1.56 3.48-3.48 3.48-1.92 0-3.47-1.56-3.47-3.48 0-1.92 1.55-3.48 3.47-3.48 1.92 0 3.48 1.56 3.48 3.48z"/>
		</clipPath>
		<clipPath clipPathUnits="userSpaceOnUse" id="cp103">
			<path d="m308.31 155.58c0 1.92-1.56 3.48-3.48 3.48-1.92 0-3.47-1.56-3.47-3.48 0-1.92 1.55-3.48 3.47-3.48 1.92 0 3.48 1.56 3.48 3.48z"/>
		</clipPath>
		<clipPath clipPathUnits="userSpaceOnUse" id="cp104">
			<path d="m308.31 155.58c0 1.92-1.56 3.48-3.48 3.48-1.92 0-3.47-1.56-3.47-3.48 0-1.92 1.55-3.48 3.47-3.48 1.92 0 3.48 1.56 3.48 3.48z"/>
		</clipPath>
		<clipPath clipPathUnits="userSpaceOnUse" id="cp105">
			<path d="m308.31 155.58c0 1.92-1.56 3.48-3.48 3.48-1.92 0-3.47-1.56-3.47-3.48 0-1.92 1.55-3.48 3.47-3.48 1.92 0 3.48 1.56 3.48 3.48z"/>
		</clipPath>
		<clipPath clipPathUnits="userSpaceOnUse" id="cp106">
			<path d="m308.31 155.58c0 1.92-1.56 3.48-3.48 3.48-1.92 0-3.47-1.56-3.47-3.48 0-1.92 1.55-3.48 3.47-3.48 1.92 0 3.48 1.56 3.48 3.48z"/>
		</clipPath>
		<clipPath clipPathUnits="userSpaceOnUse" id="cp107">
			<path d="m308.31 155.58c0 1.92-1.56 3.48-3.48 3.48-1.92 0-3.47-1.56-3.47-3.48 0-1.92 1.55-3.48 3.47-3.48 1.92 0 3.48 1.56 3.48 3.48z"/>
		</clipPath>
		<clipPath clipPathUnits="userSpaceOnUse" id="cp108">
			<path d="m308.31 155.58c0 1.92-1.56 3.48-3.48 3.48-1.92 0-3.47-1.56-3.47-3.48 0-1.92 1.55-3.48 3.47-3.48 1.92 0 3.48 1.56 3.48 3.48z"/>
		</clipPath>
		<clipPath clipPathUnits="userSpaceOnUse" id="cp109">
			<path d="m308.31 155.58c0 1.92-1.56 3.48-3.48 3.48-1.92 0-3.47-1.56-3.47-3.48 0-1.92 1.55-3.48 3.47-3.48 1.92 0 3.48 1.56 3.48 3.48z"/>
		</clipPath>
		<clipPath clipPathUnits="userSpaceOnUse" id="cp110">
			<path d="m308.31 155.58c0 1.92-1.56 3.48-3.48 3.48-1.92 0-3.47-1.56-3.47-3.48 0-1.92 1.55-3.48 3.47-3.48 1.92 0 3.48 1.56 3.48 3.48z"/>
		</clipPath>
		<clipPath clipPathUnits="userSpaceOnUse" id="cp111">
			<path d="m308.31 155.58c0 1.92-1.56 3.48-3.48 3.48-1.92 0-3.47-1.56-3.47-3.48 0-1.92 1.55-3.48 3.47-3.48 1.92 0 3.48 1.56 3.48 3.48z"/>
		</clipPath>
		<clipPath clipPathUnits="userSpaceOnUse" id="cp112">
			<path d="m308.31 155.58c0 1.92-1.56 3.48-3.48 3.48-1.92 0-3.47-1.56-3.47-3.48 0-1.92 1.55-3.48 3.47-3.48 1.92 0 3.48 1.56 3.48 3.48z"/>
		</clipPath>
		<clipPath clipPathUnits="userSpaceOnUse" id="cp113">
			<path d="m308.31 155.58c0 1.92-1.56 3.48-3.48 3.48-1.92 0-3.47-1.56-3.47-3.48 0-1.92 1.55-3.48 3.47-3.48 1.92 0 3.48 1.56 3.48 3.48z"/>
		</clipPath>
		<clipPath clipPathUnits="userSpaceOnUse" id="cp114">
			<path d="m308.31 155.58c0 1.92-1.56 3.48-3.48 3.48-1.92 0-3.47-1.56-3.47-3.48 0-1.92 1.55-3.48 3.47-3.48 1.92 0 3.48 1.56 3.48 3.48z"/>
		</clipPath>
		<clipPath clipPathUnits="userSpaceOnUse" id="cp115">
			<path d="m308.31 155.58c0 1.92-1.56 3.48-3.48 3.48-1.92 0-3.47-1.56-3.47-3.48 0-1.92 1.55-3.48 3.47-3.48 1.92 0 3.48 1.56 3.48 3.48z"/>
		</clipPath>
		<clipPath clipPathUnits="userSpaceOnUse" id="cp116">
			<path d="m308.31 155.58c0 1.92-1.56 3.48-3.48 3.48-1.92 0-3.47-1.56-3.47-3.48 0-1.92 1.55-3.48 3.47-3.48 1.92 0 3.48 1.56 3.48 3.48z"/>
		</clipPath>
		<clipPath clipPathUnits="userSpaceOnUse" id="cp117">
			<path d="m308.31 155.58c0 1.92-1.56 3.48-3.48 3.48-1.92 0-3.47-1.56-3.47-3.48 0-1.92 1.55-3.48 3.47-3.48 1.92 0 3.48 1.56 3.48 3.48z"/>
		</clipPath>
		<clipPath clipPathUnits="userSpaceOnUse" id="cp118">
			<path d="m308.31 155.58c0 1.92-1.56 3.48-3.48 3.48-1.92 0-3.47-1.56-3.47-3.48 0-1.92 1.55-3.48 3.47-3.48 1.92 0 3.48 1.56 3.48 3.48z"/>
		</clipPath>
		<clipPath clipPathUnits="userSpaceOnUse" id="cp119">
			<path d="m308.31 155.58c0 1.92-1.56 3.48-3.48 3.48-1.92 0-3.47-1.56-3.47-3.48 0-1.92 1.55-3.48 3.47-3.48 1.92 0 3.48 1.56 3.48 3.48z"/>
		</clipPath>
		<clipPath clipPathUnits="userSpaceOnUse" id="cp120">
			<path d="m308.31 155.58c0 1.92-1.56 3.48-3.48 3.48-1.92 0-3.47-1.56-3.47-3.48 0-1.92 1.55-3.48 3.47-3.48 1.92 0 3.48 1.56 3.48 3.48z"/>
		</clipPath>
		<clipPath clipPathUnits="userSpaceOnUse" id="cp121">
			<path d="m308.31 155.58c0 1.92-1.56 3.48-3.48 3.48-1.92 0-3.47-1.56-3.47-3.48 0-1.92 1.55-3.48 3.47-3.48 1.92 0 3.48 1.56 3.48 3.48z"/>
		</clipPath>
		<clipPath clipPathUnits="userSpaceOnUse" id="cp122">
			<path d="m308.31 155.58c0 1.92-1.56 3.48-3.48 3.48-1.92 0-3.47-1.56-3.47-3.48 0-1.92 1.55-3.48 3.47-3.48 1.92 0 3.48 1.56 3.48 3.48z"/>
		</clipPath>
		<clipPath clipPathUnits="userSpaceOnUse" id="cp123">
			<path d="m308.31 155.58c0 1.92-1.56 3.48-3.48 3.48-1.92 0-3.47-1.56-3.47-3.48 0-1.92 1.55-3.48 3.47-3.48 1.92 0 3.48 1.56 3.48 3.48z"/>
		</clipPath>
		<clipPath clipPathUnits="userSpaceOnUse" id="cp124">
			<path d="m308.31 155.58c0 1.92-1.56 3.48-3.48 3.48-1.92 0-3.47-1.56-3.47-3.48 0-1.92 1.55-3.48 3.47-3.48 1.92 0 3.48 1.56 3.48 3.48z"/>
		</clipPath>
		<clipPath clipPathUnits="userSpaceOnUse" id="cp125">
			<path d="m308.31 155.58c0 1.92-1.56 3.48-3.48 3.48-1.92 0-3.47-1.56-3.47-3.48 0-1.92 1.55-3.48 3.47-3.48 1.92 0 3.48 1.56 3.48 3.48z"/>
		</clipPath>
		<clipPath clipPathUnits="userSpaceOnUse" id="cp126">
			<path d="m308.31 155.58c0 1.92-1.56 3.48-3.48 3.48-1.92 0-3.47-1.56-3.47-3.48 0-1.92 1.55-3.48 3.47-3.48 1.92 0 3.48 1.56 3.48 3.48z"/>
		</clipPath>
		<clipPath clipPathUnits="userSpaceOnUse" id="cp127">
			<path d="m308.31 155.58c0 1.92-1.56 3.48-3.48 3.48-1.92 0-3.47-1.56-3.47-3.48 0-1.92 1.55-3.48 3.47-3.48 1.92 0 3.48 1.56 3.48 3.48z"/>
		</clipPath>
		<clipPath clipPathUnits="userSpaceOnUse" id="cp128">
			<path d="m308.31 155.58c0 1.92-1.56 3.48-3.48 3.48-1.92 0-3.47-1.56-3.47-3.48 0-1.92 1.55-3.48 3.47-3.48 1.92 0 3.48 1.56 3.48 3.48z"/>
		</clipPath>
		<clipPath clipPathUnits="userSpaceOnUse" id="cp129">
			<path d="m308.31 155.58c0 1.92-1.56 3.48-3.48 3.48-1.92 0-3.47-1.56-3.47-3.48 0-1.92 1.55-3.48 3.47-3.48 1.92 0 3.48 1.56 3.48 3.48z"/>
		</clipPath>
		<clipPath clipPathUnits="userSpaceOnUse" id="cp130">
			<path d="m308.31 155.58c0 1.92-1.56 3.48-3.48 3.48-1.92 0-3.47-1.56-3.47-3.48 0-1.92 1.55-3.48 3.47-3.48 1.92 0 3.48 1.56 3.48 3.48z"/>
		</clipPath>
		<clipPath clipPathUnits="userSpaceOnUse" id="cp131">
			<path d="m308.31 155.58c0 1.92-1.56 3.48-3.48 3.48-1.92 0-3.47-1.56-3.47-3.48 0-1.92 1.55-3.48 3.47-3.48 1.92 0 3.48 1.56 3.48 3.48z"/>
		</clipPath>
		<clipPath clipPathUnits="userSpaceOnUse" id="cp132">
			<path d="m308.31 155.58c0 1.92-1.56 3.48-3.48 3.48-1.92 0-3.47-1.56-3.47-3.48 0-1.92 1.55-3.48 3.47-3.48 1.92 0 3.48 1.56 3.48 3.48z"/>
		</clipPath>
		<clipPath clipPathUnits="userSpaceOnUse" id="cp133">
			<path d="m308.31 155.58c0 1.92-1.56 3.48-3.48 3.48-1.92 0-3.47-1.56-3.47-3.48 0-1.92 1.55-3.48 3.47-3.48 1.92 0 3.48 1.56 3.48 3.48z"/>
		</clipPath>
		<clipPath clipPathUnits="userSpaceOnUse" id="cp134">
			<path d="m308.31 155.58c0 1.92-1.56 3.48-3.48 3.48-1.92 0-3.47-1.56-3.47-3.48 0-1.92 1.55-3.48 3.47-3.48 1.92 0 3.48 1.56 3.48 3.48z"/>
		</clipPath>
		<clipPath clipPathUnits="userSpaceOnUse" id="cp135">
			<path d="m308.31 155.58c0 1.92-1.56 3.48-3.48 3.48-1.92 0-3.47-1.56-3.47-3.48 0-1.92 1.55-3.48 3.47-3.48 1.92 0 3.48 1.56 3.48 3.48z"/>
		</clipPath>
		<clipPath clipPathUnits="userSpaceOnUse" id="cp136">
			<path d="m437.11 93.91c0 1.92-1.55 3.48-3.47 3.48-1.92 0-3.48-1.56-3.48-3.48 0-1.92 1.56-3.48 3.48-3.48 1.92 0 3.47 1.56 3.47 3.48z"/>
		</clipPath>
		<clipPath clipPathUnits="userSpaceOnUse" id="cp137">
			<path d="m437.11 93.91c0 1.92-1.55 3.48-3.47 3.48-1.92 0-3.48-1.56-3.48-3.48 0-1.92 1.56-3.48 3.48-3.48 1.92 0 3.47 1.56 3.47 3.48z"/>
		</clipPath>
		<clipPath clipPathUnits="userSpaceOnUse" id="cp138">
			<path d="m437.11 93.91c0 1.92-1.55 3.48-3.47 3.48-1.92 0-3.48-1.56-3.48-3.48 0-1.92 1.56-3.48 3.48-3.48 1.92 0 3.47 1.56 3.47 3.48z"/>
		</clipPath>
		<clipPath clipPathUnits="userSpaceOnUse" id="cp139">
			<path d="m437.11 93.91c0 1.92-1.55 3.48-3.47 3.48-1.92 0-3.48-1.56-3.48-3.48 0-1.92 1.56-3.48 3.48-3.48 1.92 0 3.47 1.56 3.47 3.48z"/>
		</clipPath>
		<clipPath clipPathUnits="userSpaceOnUse" id="cp140">
			<path d="m437.11 93.91c0 1.92-1.55 3.48-3.47 3.48-1.92 0-3.48-1.56-3.48-3.48 0-1.92 1.56-3.48 3.48-3.48 1.92 0 3.47 1.56 3.47 3.48z"/>
		</clipPath>
		<clipPath clipPathUnits="userSpaceOnUse" id="cp141">
			<path d="m437.11 93.91c0 1.92-1.55 3.48-3.47 3.48-1.92 0-3.48-1.56-3.48-3.48 0-1.92 1.56-3.48 3.48-3.48 1.92 0 3.47 1.56 3.47 3.48z"/>
		</clipPath>
		<clipPath clipPathUnits="userSpaceOnUse" id="cp142">
			<path d="m437.11 93.91c0 1.92-1.55 3.48-3.47 3.48-1.92 0-3.48-1.56-3.48-3.48 0-1.92 1.56-3.48 3.48-3.48 1.92 0 3.47 1.56 3.47 3.48z"/>
		</clipPath>
		<clipPath clipPathUnits="userSpaceOnUse" id="cp143">
			<path d="m437.11 93.91c0 1.92-1.55 3.48-3.47 3.48-1.92 0-3.48-1.56-3.48-3.48 0-1.92 1.56-3.48 3.48-3.48 1.92 0 3.47 1.56 3.47 3.48z"/>
		</clipPath>
		<clipPath clipPathUnits="userSpaceOnUse" id="cp144">
			<path d="m437.11 93.91c0 1.92-1.55 3.48-3.47 3.48-1.92 0-3.48-1.56-3.48-3.48 0-1.92 1.56-3.48 3.48-3.48 1.92 0 3.47 1.56 3.47 3.48z"/>
		</clipPath>
		<clipPath clipPathUnits="userSpaceOnUse" id="cp145">
			<path d="m437.11 93.91c0 1.92-1.55 3.48-3.47 3.48-1.92 0-3.48-1.56-3.48-3.48 0-1.92 1.56-3.48 3.48-3.48 1.92 0 3.47 1.56 3.47 3.48z"/>
		</clipPath>
		<clipPath clipPathUnits="userSpaceOnUse" id="cp146">
			<path d="m437.11 93.91c0 1.92-1.55 3.48-3.47 3.48-1.92 0-3.48-1.56-3.48-3.48 0-1.92 1.56-3.48 3.48-3.48 1.92 0 3.47 1.56 3.47 3.48z"/>
		</clipPath>
		<clipPath clipPathUnits="userSpaceOnUse" id="cp147">
			<path d="m437.11 93.91c0 1.92-1.55 3.48-3.47 3.48-1.92 0-3.48-1.56-3.48-3.48 0-1.92 1.56-3.48 3.48-3.48 1.92 0 3.47 1.56 3.47 3.48z"/>
		</clipPath>
		<clipPath clipPathUnits="userSpaceOnUse" id="cp148">
			<path d="m437.11 93.91c0 1.92-1.55 3.48-3.47 3.48-1.92 0-3.48-1.56-3.48-3.48 0-1.92 1.56-3.48 3.48-3.48 1.92 0 3.47 1.56 3.47 3.48z"/>
		</clipPath>
		<clipPath clipPathUnits="userSpaceOnUse" id="cp149">
			<path d="m437.11 93.91c0 1.92-1.55 3.48-3.47 3.48-1.92 0-3.48-1.56-3.48-3.48 0-1.92 1.56-3.48 3.48-3.48 1.92 0 3.47 1.56 3.47 3.48z"/>
		</clipPath>
		<clipPath clipPathUnits="userSpaceOnUse" id="cp150">
			<path d="m437.11 93.91c0 1.92-1.55 3.48-3.47 3.48-1.92 0-3.48-1.56-3.48-3.48 0-1.92 1.56-3.48 3.48-3.48 1.92 0 3.47 1.56 3.47 3.48z"/>
		</clipPath>
		<clipPath clipPathUnits="userSpaceOnUse" id="cp151">
			<path d="m437.11 93.91c0 1.92-1.55 3.48-3.47 3.48-1.92 0-3.48-1.56-3.48-3.48 0-1.92 1.56-3.48 3.48-3.48 1.92 0 3.47 1.56 3.47 3.48z"/>
		</clipPath>
		<clipPath clipPathUnits="userSpaceOnUse" id="cp152">
			<path d="m437.11 93.91c0 1.92-1.55 3.48-3.47 3.48-1.92 0-3.48-1.56-3.48-3.48 0-1.92 1.56-3.48 3.48-3.48 1.92 0 3.47 1.56 3.47 3.48z"/>
		</clipPath>
		<clipPath clipPathUnits="userSpaceOnUse" id="cp153">
			<path d="m437.11 93.91c0 1.92-1.55 3.48-3.47 3.48-1.92 0-3.48-1.56-3.48-3.48 0-1.92 1.56-3.48 3.48-3.48 1.92 0 3.47 1.56 3.47 3.48z"/>
		</clipPath>
		<clipPath clipPathUnits="userSpaceOnUse" id="cp154">
			<path d="m437.11 93.91c0 1.92-1.55 3.48-3.47 3.48-1.92 0-3.48-1.56-3.48-3.48 0-1.92 1.56-3.48 3.48-3.48 1.92 0 3.47 1.56 3.47 3.48z"/>
		</clipPath>
		<clipPath clipPathUnits="userSpaceOnUse" id="cp155">
			<path d="m437.11 93.91c0 1.92-1.55 3.48-3.47 3.48-1.92 0-3.48-1.56-3.48-3.48 0-1.92 1.56-3.48 3.48-3.48 1.92 0 3.47 1.56 3.47 3.48z"/>
		</clipPath>
		<clipPath clipPathUnits="userSpaceOnUse" id="cp156">
			<path d="m437.11 93.91c0 1.92-1.55 3.48-3.47 3.48-1.92 0-3.48-1.56-3.48-3.48 0-1.92 1.56-3.48 3.48-3.48 1.92 0 3.47 1.56 3.47 3.48z"/>
		</clipPath>
		<clipPath clipPathUnits="userSpaceOnUse" id="cp157">
			<path d="m437.11 93.91c0 1.92-1.55 3.48-3.47 3.48-1.92 0-3.48-1.56-3.48-3.48 0-1.92 1.56-3.48 3.48-3.48 1.92 0 3.47 1.56 3.47 3.48z"/>
		</clipPath>
		<clipPath clipPathUnits="userSpaceOnUse" id="cp158">
			<path d="m437.11 93.91c0 1.92-1.55 3.48-3.47 3.48-1.92 0-3.48-1.56-3.48-3.48 0-1.92 1.56-3.48 3.48-3.48 1.92 0 3.47 1.56 3.47 3.48z"/>
		</clipPath>
		<clipPath clipPathUnits="userSpaceOnUse" id="cp159">
			<path d="m437.11 93.91c0 1.92-1.55 3.48-3.47 3.48-1.92 0-3.48-1.56-3.48-3.48 0-1.92 1.56-3.48 3.48-3.48 1.92 0 3.47 1.56 3.47 3.48z"/>
		</clipPath>
		<clipPath clipPathUnits="userSpaceOnUse" id="cp160">
			<path d="m437.11 93.91c0 1.92-1.55 3.48-3.47 3.48-1.92 0-3.48-1.56-3.48-3.48 0-1.92 1.56-3.48 3.48-3.48 1.92 0 3.47 1.56 3.47 3.48z"/>
		</clipPath>
		<clipPath clipPathUnits="userSpaceOnUse" id="cp161">
			<path d="m437.11 93.91c0 1.92-1.55 3.48-3.47 3.48-1.92 0-3.48-1.56-3.48-3.48 0-1.92 1.56-3.48 3.48-3.48 1.92 0 3.47 1.56 3.47 3.48z"/>
		</clipPath>
		<clipPath clipPathUnits="userSpaceOnUse" id="cp162">
			<path d="m437.11 93.91c0 1.92-1.55 3.48-3.47 3.48-1.92 0-3.48-1.56-3.48-3.48 0-1.92 1.56-3.48 3.48-3.48 1.92 0 3.47 1.56 3.47 3.48z"/>
		</clipPath>
		<clipPath clipPathUnits="userSpaceOnUse" id="cp163">
			<path d="m437.11 93.91c0 1.92-1.55 3.48-3.47 3.48-1.92 0-3.48-1.56-3.48-3.48 0-1.92 1.56-3.48 3.48-3.48 1.92 0 3.47 1.56 3.47 3.48z"/>
		</clipPath>
		<clipPath clipPathUnits="userSpaceOnUse" id="cp164">
			<path d="m437.11 93.91c0 1.92-1.55 3.48-3.47 3.48-1.92 0-3.48-1.56-3.48-3.48 0-1.92 1.56-3.48 3.48-3.48 1.92 0 3.47 1.56 3.47 3.48z"/>
		</clipPath>
		<clipPath clipPathUnits="userSpaceOnUse" id="cp165">
			<path d="m437.11 93.91c0 1.92-1.55 3.48-3.47 3.48-1.92 0-3.48-1.56-3.48-3.48 0-1.92 1.56-3.48 3.48-3.48 1.92 0 3.47 1.56 3.47 3.48z"/>
		</clipPath>
		<clipPath clipPathUnits="userSpaceOnUse" id="cp166">
			<path d="m437.11 93.91c0 1.92-1.55 3.48-3.47 3.48-1.92 0-3.48-1.56-3.48-3.48 0-1.92 1.56-3.48 3.48-3.48 1.92 0 3.47 1.56 3.47 3.48z"/>
		</clipPath>
		<clipPath clipPathUnits="userSpaceOnUse" id="cp167">
			<path d="m437.11 93.91c0 1.92-1.55 3.48-3.47 3.48-1.92 0-3.48-1.56-3.48-3.48 0-1.92 1.56-3.48 3.48-3.48 1.92 0 3.47 1.56 3.47 3.48z"/>
		</clipPath>
		<clipPath clipPathUnits="userSpaceOnUse" id="cp168">
			<path d="m437.11 93.91c0 1.92-1.55 3.48-3.47 3.48-1.92 0-3.48-1.56-3.48-3.48 0-1.92 1.56-3.48 3.48-3.48 1.92 0 3.47 1.56 3.47 3.48z"/>
		</clipPath>
		<clipPath clipPathUnits="userSpaceOnUse" id="cp169">
			<path d="m437.11 93.91c0 1.92-1.55 3.48-3.47 3.48-1.92 0-3.48-1.56-3.48-3.48 0-1.92 1.56-3.48 3.48-3.48 1.92 0 3.47 1.56 3.47 3.48z"/>
		</clipPath>
		<clipPath clipPathUnits="userSpaceOnUse" id="cp170">
			<path d="m437.11 93.91c0 1.92-1.55 3.48-3.47 3.48-1.92 0-3.48-1.56-3.48-3.48 0-1.92 1.56-3.48 3.48-3.48 1.92 0 3.47 1.56 3.47 3.48z"/>
		</clipPath>
		<clipPath clipPathUnits="userSpaceOnUse" id="cp171">
			<path d="m437.11 93.91c0 1.92-1.55 3.48-3.47 3.48-1.92 0-3.48-1.56-3.48-3.48 0-1.92 1.56-3.48 3.48-3.48 1.92 0 3.47 1.56 3.47 3.48z"/>
		</clipPath>
		<clipPath clipPathUnits="userSpaceOnUse" id="cp172">
			<path d="m437.11 93.91c0 1.92-1.55 3.48-3.47 3.48-1.92 0-3.48-1.56-3.48-3.48 0-1.92 1.56-3.48 3.48-3.48 1.92 0 3.47 1.56 3.47 3.48z"/>
		</clipPath>
		<clipPath clipPathUnits="userSpaceOnUse" id="cp173">
			<path d="m437.11 93.91c0 1.92-1.55 3.48-3.47 3.48-1.92 0-3.48-1.56-3.48-3.48 0-1.92 1.56-3.48 3.48-3.48 1.92 0 3.47 1.56 3.47 3.48z"/>
		</clipPath>
		<clipPath clipPathUnits="userSpaceOnUse" id="cp174">
			<path d="m437.11 93.91c0 1.92-1.55 3.48-3.47 3.48-1.92 0-3.48-1.56-3.48-3.48 0-1.92 1.56-3.48 3.48-3.48 1.92 0 3.47 1.56 3.47 3.48z"/>
		</clipPath>
		<clipPath clipPathUnits="userSpaceOnUse" id="cp175">
			<path d="m437.11 93.91c0 1.92-1.55 3.48-3.47 3.48-1.92 0-3.48-1.56-3.48-3.48 0-1.92 1.56-3.48 3.48-3.48 1.92 0 3.47 1.56 3.47 3.48z"/>
		</clipPath>
		<clipPath clipPathUnits="userSpaceOnUse" id="cp176">
			<path d="m437.11 93.91c0 1.92-1.55 3.48-3.47 3.48-1.92 0-3.48-1.56-3.48-3.48 0-1.92 1.56-3.48 3.48-3.48 1.92 0 3.47 1.56 3.47 3.48z"/>
		</clipPath>
		<clipPath clipPathUnits="userSpaceOnUse" id="cp177">
			<path d="m437.11 93.91c0 1.92-1.55 3.48-3.47 3.48-1.92 0-3.48-1.56-3.48-3.48 0-1.92 1.56-3.48 3.48-3.48 1.92 0 3.47 1.56 3.47 3.48z"/>
		</clipPath>
		<clipPath clipPathUnits="userSpaceOnUse" id="cp178">
			<path d="m437.11 93.91c0 1.92-1.55 3.48-3.47 3.48-1.92 0-3.48-1.56-3.48-3.48 0-1.92 1.56-3.48 3.48-3.48 1.92 0 3.47 1.56 3.47 3.48z"/>
		</clipPath>
		<clipPath clipPathUnits="userSpaceOnUse" id="cp179">
			<path d="m437.11 93.91c0 1.92-1.55 3.48-3.47 3.48-1.92 0-3.48-1.56-3.48-3.48 0-1.92 1.56-3.48 3.48-3.48 1.92 0 3.47 1.56 3.47 3.48z"/>
		</clipPath>
		<clipPath clipPathUnits="userSpaceOnUse" id="cp180">
			<path d="m437.11 93.91c0 1.92-1.55 3.48-3.47 3.48-1.92 0-3.48-1.56-3.48-3.48 0-1.92 1.56-3.48 3.48-3.48 1.92 0 3.47 1.56 3.47 3.48z"/>
		</clipPath>
	</defs>
	<style>
		.s0 { fill: #ffffff } 
		.s1 { fill: #01b1ec } 
		.s2 { opacity: .2;fill: #01b1ec } 
		.s3 { fill: #0abbf5 } 
		.s4 { fill: #0186b3 } 
		.s5 { fill: #4a144e } 
		.s6 { fill: #641c6b } 
		.s7 { fill: #350e38 } 
		.s8 { fill: #823585 } 
		.s9 { fill: #ffb712 } 
		.s10 { fill: #e3e1de } 
		.s11 { fill: #f5a70a } 
		.s12 { fill: #fcb000 } 
		.s13 { fill: #fcbe03 } 
		.s14 { fill: #ff9100 } 
		.s15 { fill: #ffd6b0 } 
		.s16 { fill: #f5c243 } 
		.s17 { fill: #14212b } 
		.s18 { fill: #6591a3 } 
		.s19 { fill: #6d9aaf } 
		.s20 { fill: #f4cca8 } 
		.s21 { fill: #fec945 } 
		.s22 { fill: #6691a3 } 
		.s23 { fill: #018bba } 
		.s24 { fill: #f7cfa8 } 
		.s25 { fill: #9eb7c7 } 
	</style>
	<g id="BACKGROUND">
		<path class="s0" d="m0 0h500v500h-500z"/>
	</g>
	<g id="OBJECTS">
		<g>
			<g>
				<g>
					<g>
					</g>
				</g>
				<g>
					<g>
					</g>
				</g>
				<g>
					<g>
					</g>
				</g>
				<g>
					<g>
					</g>
				</g>
			</g>
			<g>
				<g>
					<path class="s1" d="m305.5 156.2l-1.3-1.3 42.7-42.7 33.6 33.6 52.5-52.5 1.3 1.3-53.8 53.8-33.6-33.6z"/>
				</g>
				<g>
					<g>
						<path id="SVGID_00000124119885528488029500000014775249737768567219_" class="s1" d="m350.2 114c0 1.9-1.6 3.5-3.5 3.5-1.9 0-3.4-1.6-3.4-3.5 0-1.9 1.5-3.5 3.4-3.5 1.9 0 3.5 1.6 3.5 3.5z"/>
						<g id="Clip-Path" clip-path="url(#cp1)">
							<path class="s1" d="m347.2 110.5l-3.9 3.1v-3.1z"/>
						</g>
						<g id="Clip-Path" clip-path="url(#cp2)">
							<path class="s1" d="m347.4 110.5l-4.1 3.2v-0.1l3.9-3.1z"/>
						</g>
						<g id="Clip-Path" clip-path="url(#cp3)">
							<path class="s1" d="m347.5 110.5l-4.2 3.3v-0.1l4.1-3.2z"/>
						</g>
						<g id="Clip-Path" clip-path="url(#cp4)">
							<path class="s1" d="m347.7 110.5l-4.4 3.4v-0.1l4.2-3.3z"/>
						</g>
						<g id="Clip-Path" clip-path="url(#cp5)">
							<path class="s1" d="m347.8 110.5l-4.5 3.5v-0.1l4.4-3.4z"/>
						</g>
						<g id="Clip-Path" clip-path="url(#cp6)">
							<path class="s1" d="m347.9 110.5l-4.6 3.6v-0.1l4.5-3.5z"/>
						</g>
						<g id="Clip-Path" clip-path="url(#cp7)">
							<path class="s1" d="m348.1 110.5l-4.8 3.7v-0.1l4.6-3.6z"/>
						</g>
						<g id="Clip-Path" clip-path="url(#cp8)">
							<path class="s1" d="m348.2 110.5l-4.9 3.8v-0.1l4.8-3.7z"/>
						</g>
						<g id="Clip-Path" clip-path="url(#cp9)">
							<path class="s1" d="m348.4 110.5l-5.1 3.9v-0.1l4.9-3.8z"/>
						</g>
						<g id="Clip-Path" clip-path="url(#cp10)">
							<path class="s1" d="m348.5 110.5l-5.2 4v-0.1l5.1-3.9z"/>
						</g>
						<g id="Clip-Path" clip-path="url(#cp11)">
							<path class="s1" d="m348.7 110.5l-5.4 4.1v-0.1l5.2-4z"/>
						</g>
						<g id="Clip-Path" clip-path="url(#cp12)">
							<path class="s1" d="m348.8 110.5l-5.5 4.3v-0.2l5.4-4.1z"/>
						</g>
						<g id="Clip-Path" clip-path="url(#cp13)">
							<path class="s1" d="m348.9 110.5l-5.6 4.4v-0.1l5.5-4.3z"/>
						</g>
						<g id="Clip-Path" clip-path="url(#cp14)">
							<path class="s1" d="m349.1 110.5l-5.8 4.5v-0.1l5.6-4.4z"/>
						</g>
						<g id="Clip-Path" clip-path="url(#cp15)">
							<path class="s1" d="m349.2 110.5l-5.9 4.6v-0.1l5.8-4.5z"/>
						</g>
						<g id="Clip-Path" clip-path="url(#cp16)">
							<path class="s1" d="m349.4 110.5l-6.1 4.7v-0.1l5.9-4.6z"/>
						</g>
						<g id="Clip-Path" clip-path="url(#cp17)">
							<path class="s1" d="m349.5 110.5l-6.2 4.8v-0.1l6.1-4.7z"/>
						</g>
						<g id="Clip-Path" clip-path="url(#cp18)">
							<path class="s1" d="m349.7 110.5l-6.4 4.9v-0.1l6.2-4.8z"/>
						</g>
						<g id="Clip-Path" clip-path="url(#cp19)">
							<path class="s1" d="m349.8 110.5l-6.5 5v-0.1l6.4-4.9z"/>
						</g>
						<g id="Clip-Path" clip-path="url(#cp20)">
							<path class="s1" d="m349.9 110.5l-6.6 5.1v-0.1l6.5-5z"/>
						</g>
						<g id="Clip-Path" clip-path="url(#cp21)">
							<path class="s1" d="m350.1 110.5l-6.8 5.2v-0.1l6.6-5.1z"/>
						</g>
						<g id="Clip-Path" clip-path="url(#cp22)">
							<path class="s1" d="m350.2 110.5l-6.9 5.3v-0.1l6.8-5.2h0.1z"/>
						</g>
						<g id="Clip-Path" clip-path="url(#cp23)">
							<path class="s1" d="m350.2 110.7l-6.9 5.2v-0.1l6.9-5.3z"/>
						</g>
						<g id="Clip-Path" clip-path="url(#cp24)">
							<path class="s1" d="m350.2 110.8l-6.9 5.3v-0.2l6.9-5.2z"/>
						</g>
						<g id="Clip-Path" clip-path="url(#cp25)">
							<path class="s1" d="m350.2 110.9l-6.9 5.3v-0.1l6.9-5.3z"/>
						</g>
						<g id="Clip-Path" clip-path="url(#cp26)">
							<path class="s1" d="m350.2 111l-6.9 5.3v-0.1l6.9-5.3z"/>
						</g>
						<g id="Clip-Path" clip-path="url(#cp27)">
							<path class="s1" d="m350.2 111.1l-6.9 5.3v-0.1l6.9-5.3z"/>
						</g>
						<g id="Clip-Path" clip-path="url(#cp28)">
							<path class="s1" d="m350.2 111.2l-6.9 5.3v-0.1l6.9-5.3z"/>
						</g>
						<g id="Clip-Path" clip-path="url(#cp29)">
							<path class="s1" d="m350.2 111.3l-6.9 5.3v-0.1l6.9-5.3z"/>
						</g>
						<g id="Clip-Path" clip-path="url(#cp30)">
							<path class="s1" d="m350.2 111.4l-6.9 5.3v-0.1l6.9-5.3z"/>
						</g>
						<g id="Clip-Path" clip-path="url(#cp31)">
							<path class="s1" d="m350.2 111.5l-6.9 5.3v-0.1l6.9-5.3z"/>
						</g>
						<g id="Clip-Path" clip-path="url(#cp32)">
							<path class="s1" d="m350.2 111.6l-6.9 5.3v-0.1l6.9-5.3z"/>
						</g>
						<g id="Clip-Path" clip-path="url(#cp33)">
							<path class="s1" d="m350.2 111.7l-6.9 5.3v-0.1l6.9-5.3z"/>
						</g>
						<g id="Clip-Path" clip-path="url(#cp34)">
							<path class="s1" d="m350.2 111.8l-6.9 5.3v-0.1l6.9-5.3z"/>
						</g>
						<g id="Clip-Path" clip-path="url(#cp35)">
							<path class="s1" d="m350.2 112l-6.9 5.2v-0.1l6.9-5.3z"/>
						</g>
						<g id="Clip-Path" clip-path="url(#cp36)">
							<path class="s1" d="m350.2 112.1l-6.9 5.3v-0.2l6.9-5.2z"/>
						</g>
						<g id="Clip-Path" clip-path="url(#cp37)">
							<path class="s1" d="m350.2 112.2l-6.9 5.3v-0.1l6.9-5.3z"/>
						</g>
						<g id="Clip-Path" clip-path="url(#cp38)">
							<path class="s1" d="m350.2 112.3l-6.8 5.2h-0.1l6.9-5.3z"/>
						</g>
						<g id="Clip-Path" clip-path="url(#cp39)">
							<path class="s1" d="m350.2 112.4l-6.7 5.1h-0.1l6.8-5.2z"/>
						</g>
						<g id="Clip-Path" clip-path="url(#cp40)">
							<path class="s1" d="m350.2 112.5l-6.5 5h-0.2l6.7-5.1z"/>
						</g>
						<g id="Clip-Path" clip-path="url(#cp41)">
							<path class="s1" d="m350.2 112.6l-6.4 4.9h-0.1l6.5-5z"/>
						</g>
						<g id="Clip-Path" clip-path="url(#cp42)">
							<path class="s1" d="m350.2 112.7l-6.3 4.8h-0.1l6.4-4.9z"/>
						</g>
						<g id="Clip-Path" clip-path="url(#cp43)">
							<path class="s1" d="m350.2 112.8l-6.1 4.7h-0.2l6.3-4.8z"/>
						</g>
						<g id="Clip-Path" clip-path="url(#cp44)">
							<path class="s1" d="m350.2 112.9l-6 4.6h-0.1l6.1-4.7z"/>
						</g>
						<g id="Clip-Path" clip-path="url(#cp45)">
							<path class="s1" d="m344.2 117.5l6-4.6v4.6z"/>
						</g>
					</g>
				</g>
				<g>
					<g>
						<path id="SVGID_00000037686283627110199330000018348526674012516739_" class="s1" d="m384.2 147.5c0 1.9-1.6 3.4-3.5 3.4-1.9 0-3.5-1.5-3.5-3.4 0-2 1.6-3.5 3.5-3.5 1.9 0 3.5 1.5 3.5 3.5z"/>
						<g id="Clip-Path" clip-path="url(#cp46)">
							<path class="s1" d="m381.2 144l-4 3v-3z"/>
						</g>
						<g id="Clip-Path" clip-path="url(#cp47)">
							<path class="s1" d="m381.3 144l-4.1 3.1v-0.1l4-3z"/>
						</g>
						<g id="Clip-Path" clip-path="url(#cp48)">
							<path class="s1" d="m381.5 144l-4.3 3.2v-0.1l4.1-3.1z"/>
						</g>
						<g id="Clip-Path" clip-path="url(#cp49)">
							<path class="s1" d="m381.6 144l-4.4 3.3v-0.1l4.3-3.2z"/>
						</g>
						<g id="Clip-Path" clip-path="url(#cp50)">
							<path class="s1" d="m381.8 144l-4.6 3.5v-0.2l4.4-3.3z"/>
						</g>
						<g id="Clip-Path" clip-path="url(#cp51)">
							<path class="s1" d="m381.9 144l-4.7 3.6v-0.1l4.6-3.5z"/>
						</g>
						<g id="Clip-Path" clip-path="url(#cp52)">
							<path class="s1" d="m382 144l-4.8 3.7v-0.1l4.7-3.6z"/>
						</g>
						<g id="Clip-Path" clip-path="url(#cp53)">
							<path class="s1" d="m382.2 144l-5 3.8v-0.1l4.8-3.7z"/>
						</g>
						<g id="Clip-Path" clip-path="url(#cp54)">
							<path class="s1" d="m382.3 144l-5.1 3.9v-0.1l5-3.8z"/>
						</g>
						<g id="Clip-Path" clip-path="url(#cp55)">
							<path class="s1" d="m382.5 144l-5.3 4v-0.1l5.1-3.9z"/>
						</g>
						<g id="Clip-Path" clip-path="url(#cp56)">
							<path class="s1" d="m382.6 144l-5.4 4.1v-0.1l5.3-4z"/>
						</g>
						<g id="Clip-Path" clip-path="url(#cp57)">
							<path class="s1" d="m382.8 144l-5.6 4.2v-0.1l5.4-4.1z"/>
						</g>
						<g id="Clip-Path" clip-path="url(#cp58)">
							<path class="s1" d="m382.9 144l-5.7 4.3v-0.1l5.6-4.2z"/>
						</g>
						<g id="Clip-Path" clip-path="url(#cp59)">
							<path class="s1" d="m383 144l-5.8 4.4v-0.1l5.7-4.3z"/>
						</g>
						<g id="Clip-Path" clip-path="url(#cp60)">
							<path class="s1" d="m383.2 144l-6 4.5v-0.1l5.8-4.4z"/>
						</g>
						<g id="Clip-Path" clip-path="url(#cp61)">
							<path class="s1" d="m383.3 144l-6.1 4.6v-0.1l6-4.5z"/>
						</g>
						<g id="Clip-Path" clip-path="url(#cp62)">
							<path class="s1" d="m383.5 144l-6.3 4.8v-0.2l6.1-4.6z"/>
						</g>
						<g id="Clip-Path" clip-path="url(#cp63)">
							<path class="s1" d="m383.6 144l-6.4 4.9v-0.1l6.3-4.8z"/>
						</g>
						<g id="Clip-Path" clip-path="url(#cp64)">
							<path class="s1" d="m383.8 144l-6.6 5v-0.1l6.4-4.9z"/>
						</g>
						<g id="Clip-Path" clip-path="url(#cp65)">
							<path class="s1" d="m383.9 144l-6.7 5.1v-0.1l6.6-5z"/>
						</g>
						<g id="Clip-Path" clip-path="url(#cp66)">
							<path class="s1" d="m384 144l-6.8 5.2v-0.1l6.7-5.1z"/>
						</g>
						<g id="Clip-Path" clip-path="url(#cp67)">
							<path class="s1" d="m384.2 144l-7 5.3v-0.1l6.8-5.2h0.2z"/>
						</g>
						<g id="Clip-Path" clip-path="url(#cp68)">
							<path class="s1" d="m384.2 144.1l-7 5.3v-0.1l7-5.3z"/>
						</g>
						<g id="Clip-Path" clip-path="url(#cp69)">
							<path class="s1" d="m384.2 144.2l-7 5.3v-0.1l7-5.3z"/>
						</g>
						<g id="Clip-Path" clip-path="url(#cp70)">
							<path class="s1" d="m384.2 144.3l-7 5.3v-0.1l7-5.3z"/>
						</g>
						<g id="Clip-Path" clip-path="url(#cp71)">
							<path class="s1" d="m384.2 144.4l-7 5.3v-0.1l7-5.3z"/>
						</g>
						<g id="Clip-Path" clip-path="url(#cp72)">
							<path class="s1" d="m384.2 144.5l-7 5.3v-0.1l7-5.3z"/>
						</g>
						<g id="Clip-Path" clip-path="url(#cp73)">
							<path class="s1" d="m384.2 144.7l-7 5.3v-0.2l7-5.3z"/>
						</g>
						<g id="Clip-Path" clip-path="url(#cp74)">
							<path class="s1" d="m384.2 144.8l-7 5.3v-0.1l7-5.3z"/>
						</g>
						<g id="Clip-Path" clip-path="url(#cp75)">
							<path class="s1" d="m384.2 144.9l-7 5.3v-0.1l7-5.3z"/>
						</g>
						<g id="Clip-Path" clip-path="url(#cp76)">
							<path class="s1" d="m384.2 145l-7 5.3v-0.1l7-5.3z"/>
						</g>
						<g id="Clip-Path" clip-path="url(#cp77)">
							<path class="s1" d="m384.2 145.1l-7 5.3v-0.1l7-5.3z"/>
						</g>
						<g id="Clip-Path" clip-path="url(#cp78)">
							<path class="s1" d="m384.2 145.2l-7 5.3v-0.1l7-5.3z"/>
						</g>
						<g id="Clip-Path" clip-path="url(#cp79)">
							<path class="s1" d="m384.2 145.3l-7 5.3v-0.1l7-5.3z"/>
						</g>
						<g id="Clip-Path" clip-path="url(#cp80)">
							<path class="s1" d="m384.2 145.4l-7 5.3v-0.1l7-5.3z"/>
						</g>
						<g id="Clip-Path" clip-path="url(#cp81)">
							<path class="s1" d="m384.2 145.5l-7 5.3v-0.1l7-5.3z"/>
						</g>
						<g id="Clip-Path" clip-path="url(#cp82)">
							<path class="s1" d="m384.2 145.6l-7 5.3v-0.1l7-5.3z"/>
						</g>
						<g id="Clip-Path" clip-path="url(#cp83)">
							<path class="s1" d="m384.2 145.7l-6.9 5.2h-0.1l7-5.3z"/>
						</g>
						<g id="Clip-Path" clip-path="url(#cp84)">
							<path class="s1" d="m384.2 145.8l-6.7 5.1h-0.2l6.9-5.2z"/>
						</g>
						<g id="Clip-Path" clip-path="url(#cp85)">
							<path class="s1" d="m384.2 146l-6.6 4.9h-0.1l6.7-5.1z"/>
						</g>
						<g id="Clip-Path" clip-path="url(#cp86)">
							<path class="s1" d="m384.2 146.1l-6.4 4.8h-0.2l6.6-4.9z"/>
						</g>
						<g id="Clip-Path" clip-path="url(#cp87)">
							<path class="s1" d="m384.2 146.2l-6.3 4.7h-0.1l6.4-4.8z"/>
						</g>
						<g id="Clip-Path" clip-path="url(#cp88)">
							<path class="s1" d="m384.2 146.3l-6.2 4.6h-0.1l6.3-4.7z"/>
						</g>
						<g id="Clip-Path" clip-path="url(#cp89)">
							<path class="s1" d="m384.2 146.4l-6 4.5h-0.2l6.2-4.6z"/>
						</g>
						<g id="Clip-Path" clip-path="url(#cp90)">
							<path class="s1" d="m378.2 150.9l6-4.5v4.5z"/>
						</g>
					</g>
				</g>
				<g>
					<g>
						<path id="SVGID_00000165210503920690723410000000632993208316682884_" class="s1" d="m308.3 155.6c0 1.9-1.5 3.5-3.5 3.5-1.9 0-3.4-1.6-3.4-3.5 0-1.9 1.5-3.5 3.4-3.5 2 0 3.5 1.6 3.5 3.5z"/>
						<g id="Clip-Path" clip-path="url(#cp91)">
							<path class="s1" d="m305.3 152.1l-3.9 3v-3z"/>
						</g>
						<g id="Clip-Path" clip-path="url(#cp92)">
							<path class="s1" d="m305.5 152.1l-4.1 3.1v-0.1l3.9-3z"/>
						</g>
						<g id="Clip-Path" clip-path="url(#cp93)">
							<path class="s1" d="m305.6 152.1l-4.2 3.3v-0.2l4.1-3.1z"/>
						</g>
						<g id="Clip-Path" clip-path="url(#cp94)">
							<path class="s1" d="m305.8 152.1l-4.4 3.4v-0.1l4.2-3.3z"/>
						</g>
						<g id="Clip-Path" clip-path="url(#cp95)">
							<path class="s1" d="m305.9 152.1l-4.5 3.5v-0.1l4.4-3.4z"/>
						</g>
						<g id="Clip-Path" clip-path="url(#cp96)">
							<path class="s1" d="m306 152.1l-4.6 3.6v-0.1l4.5-3.5z"/>
						</g>
						<g id="Clip-Path" clip-path="url(#cp97)">
							<path class="s1" d="m306.2 152.1l-4.8 3.7v-0.1l4.6-3.6z"/>
						</g>
						<g id="Clip-Path" clip-path="url(#cp98)">
							<path class="s1" d="m306.3 152.1l-4.9 3.8v-0.1l4.8-3.7z"/>
						</g>
						<g id="Clip-Path" clip-path="url(#cp99)">
							<path class="s1" d="m306.5 152.1l-5.1 3.9v-0.1l4.9-3.8z"/>
						</g>
						<g id="Clip-Path" clip-path="url(#cp100)">
							<path class="s1" d="m306.6 152.1l-5.2 4v-0.1l5.1-3.9z"/>
						</g>
						<g id="Clip-Path" clip-path="url(#cp101)">
							<path class="s1" d="m306.8 152.1l-5.4 4.1v-0.1l5.2-4z"/>
						</g>
						<g id="Clip-Path" clip-path="url(#cp102)">
							<path class="s1" d="m306.9 152.1l-5.5 4.2v-0.1l5.4-4.1z"/>
						</g>
						<g id="Clip-Path" clip-path="url(#cp103)">
							<path class="s1" d="m307 152.1l-5.6 4.3v-0.1l5.5-4.2z"/>
						</g>
						<g id="Clip-Path" clip-path="url(#cp104)">
							<path class="s1" d="m307.2 152.1l-5.8 4.4v-0.1l5.6-4.3z"/>
						</g>
						<g id="Clip-Path" clip-path="url(#cp105)">
							<path class="s1" d="m307.3 152.1l-5.9 4.6v-0.2l5.8-4.4z"/>
						</g>
						<g id="Clip-Path" clip-path="url(#cp106)">
							<path class="s1" d="m307.5 152.1l-6.1 4.7v-0.1l5.9-4.6z"/>
						</g>
						<g id="Clip-Path" clip-path="url(#cp107)">
							<path class="s1" d="m307.6 152.1l-6.2 4.8v-0.1l6.1-4.7z"/>
						</g>
						<g id="Clip-Path" clip-path="url(#cp108)">
							<path class="s1" d="m307.8 152.1l-6.4 4.9v-0.1l6.2-4.8z"/>
						</g>
						<g id="Clip-Path" clip-path="url(#cp109)">
							<path class="s1" d="m307.9 152.1l-6.5 5v-0.1l6.4-4.9z"/>
						</g>
						<g id="Clip-Path" clip-path="url(#cp110)">
							<path class="s1" d="m308 152.1l-6.6 5.1v-0.1l6.5-5z"/>
						</g>
						<g id="Clip-Path" clip-path="url(#cp111)">
							<path class="s1" d="m308.2 152.1l-6.8 5.2v-0.1l6.6-5.1z"/>
						</g>
						<g id="Clip-Path" clip-path="url(#cp112)">
							<path class="s1" d="m308.3 152.1l-6.9 5.3v-0.1l6.8-5.2h0.1z"/>
						</g>
						<g id="Clip-Path" clip-path="url(#cp113)">
							<path class="s1" d="m308.3 152.2l-6.9 5.3v-0.1l6.9-5.3z"/>
						</g>
						<g id="Clip-Path" clip-path="url(#cp114)">
							<path class="s1" d="m308.3 152.3l-6.9 5.3v-0.1l6.9-5.3z"/>
						</g>
						<g id="Clip-Path" clip-path="url(#cp115)">
							<path class="s1" d="m308.3 152.4l-6.9 5.3v-0.1l6.9-5.3z"/>
						</g>
						<g id="Clip-Path" clip-path="url(#cp116)">
							<path class="s1" d="m308.3 152.6l-6.9 5.2v-0.1l6.9-5.3z"/>
						</g>
						<g id="Clip-Path" clip-path="url(#cp117)">
							<path class="s1" d="m308.3 152.7l-6.9 5.3v-0.2l6.9-5.2z"/>
						</g>
						<g id="Clip-Path" clip-path="url(#cp118)">
							<path class="s1" d="m308.3 152.8l-6.9 5.3v-0.1l6.9-5.3z"/>
						</g>
						<g id="Clip-Path" clip-path="url(#cp119)">
							<path class="s1" d="m308.3 152.9l-6.9 5.3v-0.1l6.9-5.3z"/>
						</g>
						<g id="Clip-Path" clip-path="url(#cp120)">
							<path class="s1" d="m308.3 153l-6.9 5.3v-0.1l6.9-5.3z"/>
						</g>
						<g id="Clip-Path" clip-path="url(#cp121)">
							<path class="s1" d="m308.3 153.1l-6.9 5.3v-0.1l6.9-5.3z"/>
						</g>
						<g id="Clip-Path" clip-path="url(#cp122)">
							<path class="s1" d="m308.3 153.2l-6.9 5.3v-0.1l6.9-5.3z"/>
						</g>
						<g id="Clip-Path" clip-path="url(#cp123)">
							<path class="s1" d="m308.3 153.3l-6.9 5.3v-0.1l6.9-5.3z"/>
						</g>
						<g id="Clip-Path" clip-path="url(#cp124)">
							<path class="s1" d="m308.3 153.4l-6.9 5.3v-0.1l6.9-5.3z"/>
						</g>
						<g id="Clip-Path" clip-path="url(#cp125)">
							<path class="s1" d="m308.3 153.5l-6.9 5.3v-0.1l6.9-5.3z"/>
						</g>
						<g id="Clip-Path" clip-path="url(#cp126)">
							<path class="s1" d="m308.3 153.6l-6.9 5.3v-0.1l6.9-5.3z"/>
						</g>
						<g id="Clip-Path" clip-path="url(#cp127)">
							<path class="s1" d="m308.3 153.7l-6.9 5.3v-0.1l6.9-5.3z"/>
						</g>
						<g id="Clip-Path" clip-path="url(#cp128)">
							<path class="s1" d="m308.3 153.9l-6.8 5.2h-0.1v-0.1l6.9-5.3z"/>
						</g>
						<g id="Clip-Path" clip-path="url(#cp129)">
							<path class="s1" d="m308.3 154l-6.7 5.1h-0.1l6.8-5.2z"/>
						</g>
						<g id="Clip-Path" clip-path="url(#cp130)">
							<path class="s1" d="m308.3 154.1l-6.5 5h-0.2l6.7-5.1z"/>
						</g>
						<g id="Clip-Path" clip-path="url(#cp131)">
							<path class="s1" d="m308.3 154.2l-6.4 4.9h-0.1l6.5-5z"/>
						</g>
						<g id="Clip-Path" clip-path="url(#cp132)">
							<path class="s1" d="m308.3 154.3l-6.3 4.8h-0.1l6.4-4.9z"/>
						</g>
						<g id="Clip-Path" clip-path="url(#cp133)">
							<path class="s1" d="m308.3 154.4l-6.1 4.7h-0.2l6.3-4.8z"/>
						</g>
						<g id="Clip-Path" clip-path="url(#cp134)">
							<path class="s1" d="m308.3 154.5l-6 4.6h-0.1l6.1-4.7z"/>
						</g>
						<g id="Clip-Path" clip-path="url(#cp135)">
							<path class="s1" d="m302.3 159.1l6-4.6v4.6z"/>
						</g>
					</g>
				</g>
				<g>
					<g>
						<path id="SVGID_00000033358584323063226020000015223888058126817716_" class="s1" d="m437.1 93.9c0 1.9-1.5 3.5-3.5 3.5-1.9 0-3.4-1.6-3.4-3.5 0-1.9 1.5-3.5 3.4-3.5 2 0 3.5 1.6 3.5 3.5z"/>
						<g id="Clip-Path" clip-path="url(#cp136)">
							<path class="s1" d="m434.1 90.4l-3.9 3.1v-3.1z"/>
						</g>
						<g id="Clip-Path" clip-path="url(#cp137)">
							<path class="s1" d="m434.3 90.4l-4.1 3.2v-0.1l3.9-3.1z"/>
						</g>
						<g id="Clip-Path" clip-path="url(#cp138)">
							<path class="s1" d="m434.4 90.4l-4.2 3.3v-0.1l4.1-3.2z"/>
						</g>
						<g id="Clip-Path" clip-path="url(#cp139)">
							<path class="s1" d="m434.6 90.4l-4.4 3.4v-0.1l4.2-3.3z"/>
						</g>
						<g id="Clip-Path" clip-path="url(#cp140)">
							<path class="s1" d="m434.7 90.4l-4.5 3.5v-0.1l4.4-3.4z"/>
						</g>
						<g id="Clip-Path" clip-path="url(#cp141)">
							<path class="s1" d="m434.9 90.4l-4.7 3.6v-0.1l4.5-3.5z"/>
						</g>
						<g id="Clip-Path" clip-path="url(#cp142)">
							<path class="s1" d="m435 90.4l-4.8 3.7v-0.1l4.7-3.6z"/>
						</g>
						<g id="Clip-Path" clip-path="url(#cp143)">
							<path class="s1" d="m435.1 90.4l-4.9 3.8v-0.1l4.8-3.7z"/>
						</g>
						<g id="Clip-Path" clip-path="url(#cp144)">
							<path class="s1" d="m435.3 90.4l-5.1 3.9v-0.1l4.9-3.8z"/>
						</g>
						<g id="Clip-Path" clip-path="url(#cp145)">
							<path class="s1" d="m435.4 90.4l-5.2 4v-0.1l5.1-3.9z"/>
						</g>
						<g id="Clip-Path" clip-path="url(#cp146)">
							<path class="s1" d="m435.6 90.4l-5.4 4.1v-0.1l5.2-4z"/>
						</g>
						<g id="Clip-Path" clip-path="url(#cp147)">
							<path class="s1" d="m435.7 90.4l-5.5 4.3v-0.2l5.4-4.1z"/>
						</g>
						<g id="Clip-Path" clip-path="url(#cp148)">
							<path class="s1" d="m435.8 90.4l-5.6 4.4v-0.1l5.5-4.3z"/>
						</g>
						<g id="Clip-Path" clip-path="url(#cp149)">
							<path class="s1" d="m436 90.4l-5.8 4.5v-0.1l5.6-4.4z"/>
						</g>
						<g id="Clip-Path" clip-path="url(#cp150)">
							<path class="s1" d="m436.1 90.4l-5.9 4.6v-0.1l5.8-4.5z"/>
						</g>
						<g id="Clip-Path" clip-path="url(#cp151)">
							<path class="s1" d="m436.3 90.4l-6.1 4.7v-0.1l5.9-4.6z"/>
						</g>
						<g id="Clip-Path" clip-path="url(#cp152)">
							<path class="s1" d="m436.4 90.4l-6.2 4.8v-0.1l6.1-4.7z"/>
						</g>
						<g id="Clip-Path" clip-path="url(#cp153)">
							<path class="s1" d="m436.6 90.4l-6.4 4.9v-0.1l6.2-4.8z"/>
						</g>
						<g id="Clip-Path" clip-path="url(#cp154)">
							<path class="s1" d="m436.7 90.4l-6.5 5v-0.1l6.4-4.9z"/>
						</g>
						<g id="Clip-Path" clip-path="url(#cp155)">
							<path class="s1" d="m436.8 90.4l-6.6 5.1v-0.1l6.5-5z"/>
						</g>
						<g id="Clip-Path" clip-path="url(#cp156)">
							<path class="s1" d="m437 90.4l-6.8 5.2v-0.1l6.6-5.1z"/>
						</g>
						<g id="Clip-Path" clip-path="url(#cp157)">
							<path class="s1" d="m437.1 90.4l-6.9 5.3v-0.1l6.8-5.2h0.1z"/>
						</g>
						<g id="Clip-Path" clip-path="url(#cp158)">
							<path class="s1" d="m437.1 90.6l-6.9 5.3v-0.2l6.9-5.3z"/>
						</g>
						<g id="Clip-Path" clip-path="url(#cp159)">
							<path class="s1" d="m437.1 90.7l-6.9 5.3v-0.1l6.9-5.3z"/>
						</g>
						<g id="Clip-Path" clip-path="url(#cp160)">
							<path class="s1" d="m437.1 90.8l-6.9 5.3v-0.1l6.9-5.3z"/>
						</g>
						<g id="Clip-Path" clip-path="url(#cp161)">
							<path class="s1" d="m437.1 90.9l-6.9 5.3v-0.1l6.9-5.3z"/>
						</g>
						<g id="Clip-Path" clip-path="url(#cp162)">
							<path class="s1" d="m437.1 91l-6.9 5.3v-0.1l6.9-5.3z"/>
						</g>
						<g id="Clip-Path" clip-path="url(#cp163)">
							<path class="s1" d="m437.1 91.1l-6.9 5.3v-0.1l6.9-5.3z"/>
						</g>
						<g id="Clip-Path" clip-path="url(#cp164)">
							<path class="s1" d="m437.1 91.2l-6.9 5.3v-0.1l6.9-5.3z"/>
						</g>
						<g id="Clip-Path" clip-path="url(#cp165)">
							<path class="s1" d="m437.1 91.3l-6.9 5.3v-0.1l6.9-5.3z"/>
						</g>
						<g id="Clip-Path" clip-path="url(#cp166)">
							<path class="s1" d="m437.1 91.4l-6.9 5.3v-0.1l6.9-5.3z"/>
						</g>
						<g id="Clip-Path" clip-path="url(#cp167)">
							<path class="s1" d="m437.1 91.5l-6.9 5.3v-0.1l6.9-5.3z"/>
						</g>
						<g id="Clip-Path" clip-path="url(#cp168)">
							<path class="s1" d="m437.1 91.6l-6.9 5.3v-0.1l6.9-5.3z"/>
						</g>
						<g id="Clip-Path" clip-path="url(#cp169)">
							<path class="s1" d="m437.1 91.7l-6.9 5.3v-0.1l6.9-5.3z"/>
						</g>
						<g id="Clip-Path" clip-path="url(#cp170)">
							<path class="s1" d="m437.1 91.9l-6.9 5.3v-0.2l6.9-5.3z"/>
						</g>
						<g id="Clip-Path" clip-path="url(#cp171)">
							<path class="s1" d="m437.1 92l-6.9 5.3v-0.1l6.9-5.3z"/>
						</g>
						<g id="Clip-Path" clip-path="url(#cp172)">
							<path class="s1" d="m437.1 92.1l-6.9 5.3v-0.1l6.9-5.3z"/>
						</g>
						<g id="Clip-Path" clip-path="url(#cp173)">
							<path class="s1" d="m437.1 92.2l-6.8 5.2h-0.1l6.9-5.3z"/>
						</g>
						<g id="Clip-Path" clip-path="url(#cp174)">
							<path class="s1" d="m437.1 92.3l-6.7 5.1h-0.1l6.8-5.2z"/>
						</g>
						<g id="Clip-Path" clip-path="url(#cp175)">
							<path class="s1" d="m437.1 92.4l-6.5 5h-0.2l6.7-5.1z"/>
						</g>
						<g id="Clip-Path" clip-path="url(#cp176)">
							<path class="s1" d="m437.1 92.5l-6.4 4.9h-0.1l6.5-5z"/>
						</g>
						<g id="Clip-Path" clip-path="url(#cp177)">
							<path class="s1" d="m437.1 92.6l-6.3 4.8h-0.1l6.4-4.9z"/>
						</g>
						<g id="Clip-Path" clip-path="url(#cp178)">
							<path class="s1" d="m437.1 92.7l-6.1 4.7h-0.2l6.3-4.8z"/>
						</g>
						<g id="Clip-Path" clip-path="url(#cp179)">
							<path class="s1" d="m437.1 92.8l-6 4.6h-0.1l6.1-4.7z"/>
						</g>
						<g id="Clip-Path" clip-path="url(#cp180)">
							<path class="s1" d="m431.1 97.4l6-4.6v4.6z"/>
						</g>
					</g>
				</g>
			</g>
			<g>
				<g>
					<g>
					</g>
				</g>
				<g>
					<g>
					</g>
				</g>
				<g>
					<g>
					</g>
				</g>
				<g>
					<g>
					</g>
				</g>
			</g>
		</g>
		<path class="s2" d="m67.5 353.4c2.6 3.7 5.3 7.1 8.1 10.6h365.1c8.4-13.9 12.6-32.6 6.7-48-4.7-12.1-14.4-19.7-19.9-31.2-11.7-24.4-2.6-62.5-20.1-80.2-16.2-16.4-43.4-1.5-58.5-19.5-6.5-7.8-8.8-19.7-14.4-28.6-7.7-12.2-21-16.9-33.1-14.9-12.1 2-23.2 9.9-33.1 19.2-13.7 12.8-25.6 28.3-39.1 41.4-13.4 13.1-29.1 23.8-45.9 24.7-34.3 1.7-64.3-37.5-98.6-33.8-16 1.7-31.3 13.6-39.9 31.1-9.9 20.1-11 46-5.8 68.9 5.1 22.8 16 42.9 28.5 60.3z"/>
		<g>
			<g>
				<g>
					<path class="s1" d="m285.7 319.1c10.2 12.3 25.4 19.7 41.5 20.3 6.4 0.2 13.2-0.6 19.1-3.7 4-2.1 7.7-5.2 10.5-9.7 0 0 9.6-14-2.2-25.6 0 0-12.6-13.5-0.5-20.6 2.1-1.2 4.5-1.9 6.9-2.1 3.5-0.4 10.1-1.9 15.2-7.4 4.2-4.3 6.3-10.4 5.7-16.4-0.5-4.8-2.6-10.5-9.2-14.6-4.3-2.7-6.3-8.8-3.2-13.2 1-1.5 2.4-2.7 3.6-4 3.3-3.3 6.4-7.4 7.9-11.9 1.4-3.8 1.4-8.3-0.7-11.8-1.2-2-3-3.6-5-4.8q-0.7-0.4-1.4-0.8c-3.2-1.7-6.8-2.8-10.3-2-3.3 0.6-6.1 2.8-8.1 5.4-3.1 4.2-4.7 9.5-5.4 14.6-0.2 1.8-0.3 3.7-0.9 5.4-1.5 5.1-7.6 7.3-12.3 5.5-7.4-2.6-13.2-0.9-17.2 1.7-5.2 3.2-8.7 8.6-9.6 14.5-1.1 7.5 1.8 13.6 3.6 16.6 1.2 2 2.2 4.3 2.5 6.7 1.9 14-16.5 12.3-16.5 12.3-16.5-2.2-21.7 14-21.7 14-4.5 12.2 0.8 23.3 7.7 31.6z"/>
					<path class="s3" d="m346.3 335.7c4-2.1 7.7-5.2 10.5-9.7 0 0 9.6-14-2.2-25.6 0 0-12.6-13.5-0.5-20.6 2.1-1.2 4.5-1.9 6.9-2.1 3.5-0.4 10.1-1.9 15.2-7.4 4.2-4.3 6.3-10.4 5.7-16.4-0.5-4.8-2.6-10.5-9.2-14.6-4.3-2.7-6.3-8.8-3.2-13.2 1-1.5 2.4-2.7 3.6-4 3.3-3.3 6.4-7.4 7.9-11.9 1.4-3.8 1.4-8.3-0.7-11.8-1.2-2-3-3.6-5-4.8-18 22.3-60.5 86.8-29 142.1z"/>
					<path class="s4" d="m368.7 202.3q-8 15-15.5 30.3c-5.1 10.1-10 20.3-14.9 30.5-4.8 10.3-9.6 20.5-14.3 30.8q-7 15.5-13.6 31.2 8-15 15.6-30.2c5-10.2 9.9-20.4 14.8-30.6 4.8-10.2 9.6-20.5 14.3-30.8q7-15.5 13.6-31.2z"/>
				</g>
				<g>
					<path class="s5" d="m313 333.1c7.6 12 20.1 20.3 34.1 22.6 5.6 0.9 11.7 1 17.2-1 3.8-1.4 7.4-3.7 10.4-7.3 0 0 10-11.2 0.9-22.8 0 0-9.4-13.3 2.1-18.2 1.9-0.8 4.1-1.1 6.3-1 3 0 9-0.5 14.2-4.7 4.1-3.4 6.7-8.5 6.8-13.8 0.2-4.3-1.1-9.5-6.4-13.9-3.5-2.9-4.5-8.5-1.3-12 1.1-1.2 2.4-2 3.7-3 3.3-2.6 6.4-5.9 8.3-9.6 1.6-3.2 2.2-7.2 0.7-10.5-0.8-1.9-2.2-3.4-3.8-4.7q-0.6-0.5-1.2-0.9c-2.6-1.9-5.7-3.2-8.8-3-3 0.2-5.7 1.8-7.7 3.9-3.3 3.3-5.3 7.8-6.4 12.2-0.5 1.6-0.8 3.2-1.4 4.6-2 4.3-7.6 5.5-11.5 3.5-6.2-3.2-11.5-2.3-15.4-0.6-4.8 2.3-8.5 6.6-10 11.7-1.8 6.4 0 12.1 1.2 14.9 0.9 2 1.5 4.1 1.5 6.3 0 12.4-16 8.9-16 8.9-14.2-3.9-20.6 9.7-20.6 9.7-5.4 10.3-2 20.6 3.1 28.7z"/>
					<path class="s6" d="m364.3 354.7c3.8-1.4 7.4-3.7 10.4-7.3 0 0 10-11.2 1-22.8 0 0-9.5-13.3 2-18.2 1.9-0.8 4.1-1.1 6.3-1 3 0 9-0.5 14.2-4.7 4.1-3.4 6.7-8.5 6.8-13.8 0.2-4.3-1.1-9.5-6.4-13.9-3.5-2.9-4.5-8.5-1.3-12 1.1-1.1 2.4-2 3.7-3 3.3-2.6 6.4-5.9 8.3-9.6 1.6-3.2 2.2-7.2 0.7-10.5-0.8-1.9-2.2-3.4-3.8-4.7-18.4 17.5-63.2 69.3-41.9 121.5z"/>
					<path class="s7" d="m399.4 240.1q-8.8 12.2-17.2 24.7c-5.6 8.4-11.1 16.8-16.5 25.2-5.5 8.4-10.9 16.9-16.1 25.4q-8 12.8-15.6 25.8 8.8-12.2 17.2-24.8c5.6-8.3 11.1-16.7 16.5-25.1 5.4-8.4 10.8-16.9 16.1-25.4q8-12.8 15.6-25.8z"/>
				</g>
			</g>
			<g>
				<g>
					<path class="s1" d="m204.3 319.1c-10.2 12.3-25.4 19.7-41.5 20.3-6.4 0.2-13.2-0.6-19.1-3.7-4-2.1-7.7-5.2-10.5-9.7 0 0-9.6-14 2.2-25.6 0 0 12.6-13.5 0.5-20.6-2.1-1.2-4.5-1.9-6.9-2.1-3.5-0.4-10.1-1.9-15.2-7.4-4.2-4.3-6.3-10.4-5.7-16.4 0.5-4.8 2.6-10.5 9.2-14.6 4.3-2.7 6.3-8.8 3.2-13.2-1-1.5-2.4-2.7-3.6-4-3.3-3.3-6.4-7.4-7.9-11.9-1.3-3.8-1.4-8.3 0.7-11.8 1.2-2 3-3.6 5-4.8q0.7-0.4 1.4-0.8c3.2-1.7 6.8-2.8 10.4-2 3.2 0.6 6 2.8 8 5.4 3.1 4.2 4.7 9.5 5.4 14.6 0.2 1.8 0.3 3.7 0.9 5.4 1.5 5.1 7.6 7.3 12.3 5.5 7.4-2.6 13.2-0.9 17.2 1.7 5.2 3.2 8.7 8.6 9.6 14.5 1.1 7.5-1.8 13.6-3.6 16.6-1.2 2-2.2 4.3-2.5 6.7-1.9 14 16.5 12.3 16.5 12.3 16.5-2.2 21.7 14 21.7 14 4.5 12.2-0.8 23.3-7.7 31.6z"/>
					<path class="s3" d="m143.7 335.7c-4-2.1-7.7-5.2-10.5-9.7 0 0-9.6-14 2.2-25.6 0 0 12.6-13.5 0.5-20.6-2.1-1.2-4.5-1.9-6.9-2.1-3.5-0.4-10.1-1.9-15.2-7.4-4.2-4.3-6.3-10.4-5.7-16.4 0.5-4.8 2.6-10.5 9.2-14.6 4.3-2.7 6.3-8.8 3.2-13.2-1-1.5-2.4-2.7-3.6-4-3.3-3.3-6.4-7.4-7.9-11.9-1.3-3.8-1.4-8.3 0.7-11.8 1.2-2 3-3.6 5-4.8 18 22.3 60.5 86.8 29 142.1z"/>
					<path class="s4" d="m121.3 202.3q8 15 15.5 30.3c5.1 10.1 10 20.3 14.9 30.5 4.8 10.3 9.6 20.5 14.3 30.8q7 15.5 13.6 31.2-8-15-15.6-30.2c-5-10.2-9.9-20.4-14.8-30.6-4.8-10.2-9.6-20.5-14.3-30.8q-7-15.5-13.6-31.2z"/>
				</g>
				<g>
					<path class="s5" d="m187 339.1c-7.6 12-20.1 20.3-34.1 22.6-5.6 0.9-11.7 1-17.2-1-3.8-1.4-7.4-3.7-10.4-7.3 0 0-10-11.2-0.9-22.8 0 0 9.4-13.3-2.1-18.2-1.9-0.8-4.1-1.1-6.3-1-3 0-9-0.5-14.2-4.7-4.1-3.4-6.7-8.5-6.8-13.8-0.2-4.3 1.1-9.5 6.4-13.9 3.5-2.9 4.5-8.5 1.3-12-1.1-1.2-2.4-2-3.7-3-3.3-2.6-6.4-5.9-8.3-9.6-1.6-3.2-2.2-7.2-0.7-10.5 0.8-1.9 2.2-3.4 3.8-4.7q0.6-0.5 1.2-0.9c2.6-1.9 5.7-3.2 8.8-3 3 0.2 5.7 1.8 7.8 3.9 3.2 3.3 5.2 7.8 6.3 12.2 0.5 1.6 0.8 3.2 1.4 4.6 2 4.3 7.6 5.5 11.5 3.5 6.2-3.2 11.5-2.3 15.4-0.6 4.8 2.3 8.5 6.6 10 11.7 1.8 6.4 0 12.1-1.2 14.9-0.9 2-1.5 4.1-1.5 6.3 0 12.4 16 8.9 16 8.9 14.2-3.9 20.6 9.7 20.6 9.7 5.4 10.3 2 20.6-3.1 28.7z"/>
					<path class="s6" d="m135.7 360.7c-3.8-1.4-7.4-3.7-10.4-7.3 0 0-10-11.2-0.9-22.8 0 0 9.4-13.3-2.1-18.2-1.9-0.8-4.1-1.1-6.3-1-3 0-9-0.5-14.2-4.7-4.1-3.4-6.7-8.5-6.8-13.8-0.2-4.3 1.1-9.5 6.4-13.9 3.5-2.9 4.5-8.5 1.3-12-1.1-1.1-2.4-2-3.7-3-3.3-2.6-6.4-5.9-8.3-9.6-1.6-3.2-2.2-7.2-0.7-10.5 0.8-1.9 2.2-3.4 3.8-4.7 18.4 17.5 63.2 69.3 41.9 121.5z"/>
					<path class="s7" d="m100.6 246.1q8.8 12.2 17.2 24.7c5.6 8.4 11.1 16.8 16.5 25.2 5.5 8.4 10.9 16.9 16.1 25.4q8 12.8 15.6 25.8-8.8-12.2-17.2-24.8c-5.6-8.3-11.1-16.7-16.5-25.1-5.4-8.4-10.8-16.9-16.1-25.4q-8-12.8-15.6-25.8z"/>
				</g>
			</g>
		</g>
		<g>
			<path class="s2" d="m385.9 175.6c1.2-2.8 3.9-5.9 9.8-5.9 0 0-0.8-9.8 7.6-13.4 6.6-2.9 13.1 1.6 13.9 11.4 0 0 10.8-2.7 10.7 9.1 0 1.6-1.3 2.9-2.9 2.9h-36.5c-2.1 0-3.5-2.2-2.6-4.1z"/>
			<path class="s2" d="m422 191.8c1.3-2.7 4-5.9 9.8-5.9 0 0-0.7-9.7 7.6-13.4 6.6-2.9 13.2 1.7 13.9 11.4 0 0 10.9-2.7 10.8 9.2 0 1.5-1.3 2.8-2.9 2.8h-36.5c-2.1 0-3.5-2.1-2.7-4.1z"/>
			<path class="s2" d="m62.2 176c1.2-2.8 3.9-6 9.7-6 0 0-0.7-9.7 7.6-13.3 6.6-2.9 13.2 1.6 13.9 11.4 0 0 10.9-2.8 10.8 9.1 0 1.6-1.3 2.9-2.9 2.9h-36.5c-2.1 0-3.5-2.2-2.6-4.1z"/>
		</g>
		<g>
			<g>
				<path class="s8" d="m331.6 363.9l-163.2 0.1c-6.2 0-11.3-5.1-11.3-11.3v-250.7c0-6.2 5.1-11.3 11.3-11.3h163.2c6.2 0 11.3 5.1 11.3 11.3v250.7c0 6.2-5.1 11.3-11.3 11.3z"/>
				<path class="s5" d="m253.2 356.6c-3.9 1.8-8.6 0-10.4-3.9-1.8-4 0-8.7 4-10.5 3.9-1.8 8.6 0 10.4 4 1.8 4 0 8.6-4 10.4z"/>
			</g>
			<path class="s5" d="m326.8 335.5h-153.6c-4.2 0-7.7-3.4-7.7-7.7v-217c0-4.2 3.5-7.7 7.7-7.7h153.6c4.2 0 7.7 3.5 7.7 7.7v217c0 4.3-3.5 7.7-7.7 7.7z"/>
			<g>
				<path class="s9" d="m295.1 273.4l-90 0.4c-5.1 0-9.3-4.2-9.3-9.3l-0.2-48.9c0-2.6 1.1-5.1 3-6.8l49.3-43.3c1-0.9 2.6-0.9 3.7 0l49.5 42.9c2 1.7 3.1 4.2 3.1 6.7l0.2 49c0 5.1-4.1 9.3-9.3 9.3z"/>
				<path class="s9" d="m205.1 273.8l40.3-38.9 4.6 2.5 4.5-2.5 40.6 38.5z"/>
				<g>
					<path class="s0" d="m285 262.8l-69.8 0.3c-3.8 0-6.9-3.1-6.9-6.9l-0.3-73c0-3.8 3.1-6.9 6.9-6.9l69.7-0.3c3.9 0 7 3.1 7 6.9l0.3 73c0 3.8-3.1 6.9-6.9 6.9z"/>
					<path class="s10" d="m208.1 206.8l42 23.3 41.6-23.3 0.2 6.9-41.8 23.4-42-23z"/>
				</g>
				<g>
					<path class="s9" d="m304.2 215.1l0.2 49c0 5.1-4.1 9.3-9.3 9.3l-90 0.4c-5.1 0-9.3-4.1-9.3-9.3l-0.2-48.9c0-2.6 1.1-5.1 3-6.7l50.7 28.1 0.7 0.4 51.1-28.9c2 1.6 3.1 4.1 3.1 6.6z"/>
				</g>
				<g>
					<path class="s9" d="m205.1 273.8l40.3-38.9 4.6 2.5 4.5-2.5 40.6 38.5z"/>
					<path class="s11" d="m245.4 234.9l-40.2 38.9h-0.1c-2.1 0-4.1-0.7-5.7-1.9l41.1-39.8z"/>
					<path class="s11" d="m300.8 271.5c-1.6 1.2-3.6 1.9-5.7 1.9l-40.6-38.5 4.8-2.8z"/>
				</g>
			</g>
			<g style="opacity: .1">
				<path class="s0" d="m334.5 129.7l-169 76.7v-21l169-76.7z"/>
				<path class="s0" d="m334.5 237.7l-169 76.7v-21l169-76.7z"/>
				<path class="s0" d="m334.5 204.7l-169 76.7v-37l169-76.7z"/>
			</g>
		</g>
		<g>
			<g>
				<g>
					<path class="s12" d="m322.7 355.7v10.1c0 1.3 12.2 2.3 27.3 2.3 15.1 0 27.3-1 27.3-2.3v-10.1z"/>
					<path class="s13" d="m363.9 355.7h-12.6v12.4c4.6 0 8.9-0.1 12.6-0.3z"/>
					<path class="s14" d="m350 358.1c-15.1 0-27.3-1.1-27.3-2.4 0-1.3 12.2-2.3 27.3-2.3 15.1 0 27.3 1 27.3 2.3 0 1.3-12.2 2.4-27.3 2.4z"/>
					<path class="s12" d="m350 356.8c-13.5 0-24.4-0.6-24.4-1.3 0-0.7 10.9-1.3 24.4-1.3 13.5 0 24.4 0.6 24.4 1.3 0 0.7-10.9 1.3-24.4 1.3z"/>
					<g>
						<path class="s14" d="m324.4 365.3c2.1 0.1 4.2 0.3 6.3 0.4q3.2 0.2 6.4 0.4c4.2 0.1 8.5 0.3 12.7 0.3 4.3 0.1 8.5-0.1 12.7-0.2l3.2-0.2 3.2-0.2c2.1-0.1 4.2-0.4 6.3-0.5-4.1 0.8-8.4 1.4-12.6 1.7-4.3 0.3-8.5 0.4-12.8 0.4-4.2 0-8.5-0.2-12.8-0.5-4.2-0.4-8.4-0.9-12.6-1.6z"/>
					</g>
				</g>
				<g>
					<path class="s12" d="m320 345.2v10.1c0 1.3 12.3 2.3 27.3 2.3 15.1 0 27.3-1 27.3-2.3v-10.1z"/>
					<path class="s13" d="m361.2 345.2h-12.6v12.4c4.6 0 8.9-0.1 12.6-0.3z"/>
					<path class="s14" d="m347.3 347.6c-15.1 0-27.3-1.1-27.3-2.4 0-1.3 12.2-2.3 27.3-2.3 15.1 0 27.3 1 27.3 2.3 0 1.3-12.2 2.4-27.3 2.4z"/>
					<path class="s12" d="m347.3 346.3c-13.5 0-24.4-0.6-24.4-1.3 0-0.7 10.9-1.3 24.4-1.3 13.5 0 24.4 0.6 24.4 1.3 0 0.7-10.9 1.3-24.4 1.3z"/>
					<g>
						<path class="s14" d="m321.7 354.8c2.1 0.1 4.2 0.3 6.4 0.4q3.1 0.2 6.3 0.3c4.3 0.2 8.5 0.4 12.7 0.4 4.3 0 8.5-0.1 12.7-0.3l3.2-0.1 3.2-0.2c2.1-0.1 4.2-0.4 6.4-0.5-4.2 0.8-8.5 1.3-12.7 1.7-4.3 0.3-8.5 0.4-12.8 0.4-4.2-0.1-8.5-0.2-12.7-0.5-4.3-0.4-8.5-0.9-12.7-1.6z"/>
					</g>
				</g>
				<g>
					<path class="s12" d="m322.5 335.3v10c0 1.3 12.2 2.4 27.3 2.4 15.1 0 27.3-1.1 27.3-2.4v-10z"/>
					<path class="s13" d="m363.7 335.3h-12.6v12.4c4.6 0 8.9-0.2 12.6-0.4z"/>
					<path class="s14" d="m377.1 335.3c0 1.3-12.2 2.3-27.3 2.3-15.1 0-27.3-1-27.3-2.3 0-1.3 12.2-2.4 27.3-2.4 15.1 0 27.3 1.1 27.3 2.4z"/>
					<path class="s12" d="m349.8 336.4c-13.5 0-24.4-0.6-24.4-1.4 0-0.7 10.9-1.3 24.4-1.3 13.5 0 24.4 0.6 24.4 1.3 0 0.8-10.9 1.4-24.4 1.4z"/>
					<g>
						<path class="s14" d="m324.2 344.8c2.1 0.2 4.2 0.3 6.3 0.4q3.2 0.3 6.4 0.4c4.2 0.2 8.5 0.3 12.7 0.3 4.2 0.1 8.5 0 12.7-0.2l3.2-0.1 3.2-0.3c2.1-0.1 4.2-0.4 6.3-0.5-4.1 0.8-8.4 1.4-12.6 1.7-4.3 0.3-8.5 0.5-12.8 0.5-4.3-0.1-8.5-0.2-12.8-0.6-4.2-0.4-8.4-0.8-12.6-1.6z"/>
					</g>
				</g>
				<g>
					<path class="s12" d="m325.4 324v10c0 1.3 12.2 2.4 27.3 2.4 15.1 0 27.3-1.1 27.3-2.4v-10z"/>
					<path class="s13" d="m366.6 324h-12.6v12.4c4.6-0.1 8.9-0.2 12.6-0.4z"/>
					<path class="s14" d="m380 324c0 1.3-12.2 2.3-27.3 2.3-15.1 0-27.3-1-27.3-2.3 0-1.3 12.2-2.4 27.3-2.4 15.1 0 27.3 1.1 27.3 2.4z"/>
					<path class="s12" d="m377.1 323.7c0 0.8-10.9 1.4-24.4 1.4-13.5 0-24.4-0.6-24.4-1.4 0-0.7 10.9-1.3 24.4-1.3 13.5 0 24.4 0.6 24.4 1.3z"/>
					<g>
						<path class="s14" d="m327.1 333.5c2.1 0.2 4.2 0.3 6.3 0.4q3.2 0.2 6.4 0.4c4.2 0.2 8.5 0.3 12.7 0.3 4.2 0.1 8.5-0.1 12.7-0.2l3.2-0.2 3.2-0.2c2.1-0.1 4.2-0.4 6.3-0.5-4.2 0.8-8.4 1.4-12.6 1.7-4.3 0.3-8.5 0.5-12.8 0.5-4.3-0.1-8.5-0.3-12.8-0.6-4.2-0.4-8.4-0.8-12.6-1.6z"/>
					</g>
				</g>
				<g>
					<path class="s12" d="m322.5 313.2v10.1c0 1.3 12.2 2.3 27.3 2.3 15.1 0 27.3-1 27.3-2.3v-10.1z"/>
					<path class="s13" d="m363.7 313.2h-12.6v12.4c4.6 0 8.9-0.1 12.6-0.3z"/>
					<path class="s14" d="m349.8 315.6c-15.1 0-27.3-1.1-27.3-2.4 0-1.3 12.2-2.3 27.3-2.3 15.1 0 27.3 1 27.3 2.3 0 1.3-12.2 2.4-27.3 2.4z"/>
					<path class="s12" d="m349.8 314.3c-13.5 0-24.4-0.6-24.4-1.3 0-0.7 10.9-1.3 24.4-1.3 13.5 0 24.4 0.6 24.4 1.3 0 0.7-10.9 1.3-24.4 1.3z"/>
					<g>
						<path class="s14" d="m324.2 322.8c2.1 0.1 4.2 0.3 6.3 0.4q3.2 0.2 6.4 0.3c4.2 0.2 8.5 0.4 12.7 0.4 4.2 0 8.5-0.1 12.7-0.3l3.2-0.1 3.2-0.2c2.1-0.1 4.2-0.4 6.3-0.5-4.1 0.8-8.4 1.3-12.6 1.7-4.3 0.3-8.5 0.4-12.8 0.4-4.3-0.1-8.5-0.2-12.8-0.5-4.2-0.4-8.4-0.9-12.6-1.6z"/>
					</g>
				</g>
			</g>
			<g>
				<g>
					<path class="s12" d="m356.6 366.3v10.1c0 1.3 12.2 2.3 27.3 2.3 15 0 27.3-1 27.3-2.3v-10.1z"/>
					<path class="s13" d="m397.8 366.3h-12.7v12.4c4.6 0 8.9-0.1 12.7-0.3z"/>
					<path class="s14" d="m383.9 368.7c-15.1 0-27.3-1.1-27.3-2.4 0-1.3 12.2-2.3 27.3-2.3 15.1 0 27.3 1 27.3 2.3 0 1.3-12.2 2.4-27.3 2.4z"/>
					<path class="s12" d="m383.9 367.4c-13.5 0-24.4-0.6-24.4-1.3 0-0.7 10.9-1.3 24.4-1.3 13.5 0 24.4 0.6 24.4 1.3 0 0.7-10.9 1.3-24.4 1.3z"/>
					<g>
						<path class="s14" d="m358.2 375.8c2.2 0.2 4.3 0.4 6.4 0.5q3.2 0.2 6.3 0.3c4.3 0.2 8.5 0.4 12.8 0.3 4.2 0.1 8.4 0 12.7-0.2l3.2-0.1 3.1-0.2c2.2-0.1 4.3-0.4 6.4-0.6-4.2 0.8-8.4 1.4-12.7 1.7-4.2 0.4-8.5 0.5-12.7 0.5-4.3-0.1-8.6-0.2-12.8-0.6-4.2-0.3-8.5-0.8-12.7-1.6z"/>
					</g>
				</g>
				<g>
					<path class="s12" d="m353.9 355.8v10c0 1.3 12.2 2.4 27.3 2.4 15.1 0 27.3-1.1 27.3-2.4v-10z"/>
					<path class="s13" d="m395.1 355.8h-12.7v12.4c4.6 0 8.9-0.1 12.7-0.3z"/>
					<path class="s14" d="m381.2 358.2c-15.1 0-27.3-1.1-27.3-2.4 0-1.3 12.2-2.4 27.3-2.4 15.1 0 27.3 1.1 27.3 2.4 0 1.3-12.2 2.4-27.3 2.4z"/>
					<path class="s12" d="m381.2 356.9c-13.5 0-24.4-0.6-24.4-1.3 0-0.8 10.9-1.3 24.4-1.3 13.5 0 24.4 0.5 24.4 1.3 0 0.7-10.9 1.3-24.4 1.3z"/>
					<g>
						<path class="s14" d="m355.5 365.3c2.2 0.2 4.3 0.4 6.4 0.5q3.2 0.2 6.4 0.3c4.2 0.2 8.4 0.4 12.7 0.3 4.2 0.1 8.5 0 12.7-0.2l3.2-0.1 3.1-0.2c2.2-0.1 4.3-0.4 6.4-0.6-4.2 0.8-8.4 1.4-12.7 1.7-4.2 0.4-8.5 0.5-12.7 0.5-4.3-0.1-8.5-0.2-12.8-0.6-4.2-0.3-8.5-0.8-12.7-1.6z"/>
					</g>
				</g>
			</g>
		</g>
		<g>
			<path class="s2" d="m318.4 406c0 3.7-31.7 3.6-69.4 3.6-37.8 0-67.4 0.1-67.4-3.6 0-3.8 30.6-4.6 68.4-4.6 37.8 0 68.4 0.8 68.4 4.6z"/>
			<g>
				<g>
					<path class="s15" d="m249.7 287.1c1.1 0.2 2.4 0.7 3.5 0.8 2.3 0.2 4.5 0.1 6.7-0.1 4.4-0.3 8.8-1.3 13-2.7 4.3-1.2 8.5-2.9 12.5-4.8q3.1-1.4 6-3 1.5-0.9 3-1.6c0.9-0.4 2-0.9 2.9-1.2l0.4-0.1c2.2-0.7 4.7 0.1 6.2 2.2 1.9 2.6 1.5 6.2-0.9 8-1.1 0.8-2.1 1.4-3.2 2q-1.6 0.8-3.4 1.5-3.4 1.3-6.9 2.4c-4.6 1.4-9.4 2.6-14.2 3.4-4.9 0.7-9.9 1-15 0.7-3.5-0.3-7.1-1.2-10.6-2.3 0-1.7-0.1-3.5 0-5.2z"/>
					<g>
						<path class="s16" d="m304.8 277.1q0-0.1-0.1-0.2c-1.4-3.1-5.2-4.3-8.3-2.8l-17.7 8.8 5.7 9.2c0 0 8.5-2.5 15.7-5 4.2-1.4 6.5-6 4.7-10z"/>
					</g>
					<g>
						<path class="s17" d="m314.9 404c0 0 0.9 2.6 0.7 3.6 0 0-10.1 0.2-10.7 0-0.5-0.2 4-3.2 5.7-3.6z"/>
						<g>
							<path class="s17" d="m305.1 404c0 0 0.8 2.6 0.6 3.6 0 0-10.1 0.2-10.6 0-0.6-0.2 4-3.2 5.7-3.6z"/>
							<path class="s18" d="m299.4 404h6.6l-1.8-80.3 2.7-14.3h-5.2-6.7l-2.2 15.8q-0.4 2.5-0.2 5z"/>
						</g>
						<path class="s19" d="m313.9 323.7c0 0 0.2-7.1-1-10.5l-1.4-3.8h-6.7-9.8l7.2 18.3 7 76.3h6.6z"/>
					</g>
					<g>
						<path class="s20" d="m309.8 259.9c0.2-3.2 0.2-6.6-0.6-7.5-1.7-2-6.8-3.1-9-2.2-1.1 0.3-2 3.4-2.4 6.9-0.6 1.7-1.7 4.4-1.7 4.4 0 0 0.8 0.4 1.4 0.4 0.1 2.5 0.4 4.6 1.2 5.4 0.8 0.8 1.8 1.2 3 1.4v5.5l7.8-2v-8.6c0.6-0.3 2.2-1.2 2.3-2.7 0.2-1.2-1.1-1.5-2-1z"/>
						<path class="s17" d="m301.7 268.7c0 0 3.8 0 5.2-2.4 0 0-2.1 4.9-5.2 4.5z"/>
						<path class="s17" d="m313.3 253.5c-0.2-0.7-0.4-1.5-1.1-1.7 0.2-1 0.1-2.3-0.7-3-0.7-0.5-1.6-0.6-2.4-0.6-0.9-0.1-1.8-0.1-2.5-0.6-0.4-0.2-0.7-0.6-1.1-1-0.3-0.3-0.6-0.5-1-0.6-0.4-0.2-0.9-0.2-1.2 0-0.5 0.3-0.7 0.9-1.2 1.2-0.5 0.4-1.2 0.3-1.8 0.1-0.6-0.2-1.1-0.5-1.7-0.8-0.6-0.2-1.3-0.3-1.9 0.1-0.4 0.2-0.7 0.7-0.8 1.2-0.1 0.5 0 1 0.1 1.5 0.2 1.1 0.4 2.3 1 3.3-0.1 0.9 0 2.7 1 3.3l0.5-2.2c1.1 0.4 2.2 0.8 3.4 0.9 1.3 0.1 2.7-0.1 3.7-0.9 0.2-0.1 0.4-0.3 0.7-0.4 0.3 0 0.6 0.1 0.9 0.3 0.7 0.6 1 1.5 1.1 2.5 0.1 1.3 0 2.6-0.4 3.8 0 0.1 0 0.3 0.1 0.3q0 0.1 0.1 0.1c0.6-0.1 1.2-0.2 1.7-0.4 0 0 1.6-0.8 2 0.7 0 0 0.3 1.6-2.3 3v3c0.2 0 0.2 0.6 0.4 0.5q0 0 0.1-0.1c0.7-1.1 2-1.9 2.6-3.2 0.2-0.4 0.3-0.8 0.4-1.3q0.3-1.4 0.7-2.9c0.1-0.6 0.2-1.3 0.3-2 0-1.4-0.3-2.7-0.7-4.1z"/>
					</g>
					<g>
						<g>
							<path class="s21" d="m311.4 309.4l4.5-18c0 0 4.4-15.4-8.5-20.9l-4.8 1.3c-3.2 0.8-6 3-7.6 6-2.4 4.5-4.7 12.3-1.9 23.3l1.8 8.3z"/>
							<path class="s16" d="m309.9 272.9q-2.1 0.9-4.4 1.7-2.3 0.7-4.5 1.4h-0.1c-0.1 0-0.2-0.1-0.3-0.2q0 0 0-0.1 0.2-1.6 0.5-3.2 0.1 1.6 0 3.2l-0.3-0.2q2.2-0.8 4.5-1.5 2.3-0.6 4.6-1.1z"/>
							<path class="s16" d="m300.1 276.5c-0.8 1.1-1.4 2.3-1.9 3.5q-0.7 1.9-1.2 3.8c-0.6 2.6-0.9 5.3-1 7.9-0.1 1.4 0 2.7 0 4 0 1.4 0.1 2.7 0.1 4 0.2 1.4 0.3 2.7 0.4 4q0.3 2 0.5 4-0.4-2-0.8-3.9c-0.2-1.4-0.3-2.7-0.5-4q-0.2-2-0.3-4.1c0-1.3-0.1-2.7 0-4 0.1-2.7 0.5-5.4 1.2-8 0.7-2.6 1.7-5.2 3.5-7.2z"/>
						</g>
						<g>
							<path class="s17" d="m305.9 291.7l1.2 9.3 1.6-0.4c0 0-0.1 4.6-0.6 6.3 0 0-2.6-7.4-2.2-15.2z"/>
							<g>
								<path class="s15" d="m318.1 286.1q0-1.9-0.3-3.7c-0.1-1.2-0.3-2.4-0.7-3.7-0.9-2.8-4.2-4.4-7.3-3.6-2.4 0.8-4.1 2.8-4.2 5.1v0.4c0 1 0.1 2.1 0.2 3.2q0.1 1.7 0.4 3.3 0.5 3.3 0.8 6.7c0.4 4.4 0.6 8.9 0.3 13.4-0.2 4.4-0.8 8.9-1.9 13.1q-0.3 1.2-0.7 2.3c1.3 1.6 3.2 2.7 5.1 3.6q1.2-1.9 2.1-4c2-4.6 3.4-9.4 4.4-14.2 0.9-4.9 1.4-9.7 1.7-14.6q0.1-3.7 0.1-7.3z"/>
								<g>
									<path class="s21" d="m310.2 274.4q-0.1 0-0.2 0c-3.4 0.4-5.8 3.6-5.4 7l2.5 19.6 10.6-2.5c0 0 0.4-8.8 0.4-16.4 0.1-4.4-3.6-8.1-7.9-7.7z"/>
								</g>
								<path class="s22" d="m304.3 320.7c0.9 1.3 1.7 2.5 2.8 3.4 1 1.1 2.3 1.8 3.6 2.7 0.2 0.1 0.2 0.3 0.1 0.5q-0.1 0.1-0.3 0.1-1.3-0.1-2.4-0.6c-0.8-0.4-1.5-0.9-2.1-1.5q-1-0.8-1.6-2c-0.4-0.7-0.7-1.5-0.7-2.4 0-0.2 0.1-0.3 0.3-0.4q0.2 0 0.3 0.2z"/>
							</g>
						</g>
					</g>
				</g>
				<g>
					<g>
						<g>
							<g>
								<path class="s20" d="m230.8 324.7c-1-1.1-2.1-2-3.4-2.7q1 0 1.9 0c0.3 0 0.6 0 0.6-0.3 0.1-0.1 0-0.2-0.1-0.4-0.4-0.6-1.2-0.8-1.9-1.1q-0.4-0.1-0.8-0.3-0.5-0.2-1-0.5c-0.8-0.6-1.8-1.1-2.5-1.9-1.6-1.4-2.9-3.1-4.2-4.8-2.6-3.4-4.7-7.1-6.4-11-1.8-3.9-3.3-8-4.5-12.1q-0.9-3.1-1.6-6.2-0.4-1.6-0.8-3.1c-0.3-1-0.7-2.1-1-2.9l-0.2-0.4c-0.9-2-3.1-3.2-5.5-3-3.1 0.3-5.4 2.9-5.2 5.8 0.1 1.3 0.3 2.4 0.6 3.5q0.5 1.7 1.1 3.4 1.2 3.3 2.7 6.5c1.9 4.2 4.1 8.4 6.7 12.4 2.5 3.9 5.5 7.7 8.9 11.1 2 1.9 4.4 3.6 6.8 5.1q1.8 1.2 3.2 3 0.4 0.6 0.9 1.1c1 1.1 2.4 2.1 3.9 2.2 1 0.2 2.3-0.3 2.5-1.3 0.2-0.8-0.2-1.5-0.7-2.1z"/>
								<g>
									<path class="s1" d="m199 273.4q0.1 0 0.2-0.1c3.4-0.9 6.9 1.4 7.7 4.8l4.8 19.7-11.1 1.6c0 0-3.6-8.4-6.4-15.7-1.7-4.2 0.5-9.1 4.8-10.3z"/>
								</g>
							</g>
						</g>
					</g>
					<g>
						<path class="s1" d="m191.2 309.4l-4.5-18c0 0-4.5-15.4 8.5-20.9l4.7 1.3c3.3 0.8 6 3 7.6 6 2.4 4.5 4.7 12.3 2 23.3l-1.9 8.3z"/>
						<g>
							<g>
								<path class="s20" d="m240.8 287.9c0 0 4-2 5.8-2.2 1.8-0.2 6.7 3.3 6.9 4 0.2 0.6-1.6 4.9-7.3 2.3-1.3-0.6-2.8-0.7-4.2-0.4h-0.2z"/>
								<g>
									<path class="s20" d="m244.2 286.4c-1.1 0.2-3.4 0.7-4.6 0.8-2.2 0.2-4.4 0.2-6.6 0.1-4.5-0.3-8.8-1.2-13.1-2.4-4.3-1.2-8.5-2.8-12.6-4.6q-3.1-1.4-6.1-2.9-1.5-0.8-3-1.5c-0.9-0.4-2-0.9-3-1.2l-0.3-0.1c-2.2-0.6-4.7 0.3-6.2 2.4-1.8 2.7-1.3 6.2 1.1 8 1.1 0.8 2.1 1.4 3.3 1.9q1.6 0.8 3.3 1.4 3.5 1.3 7 2.3c4.7 1.3 9.5 2.4 14.4 3 4.8 0.7 9.8 0.9 14.9 0.4 3.5-0.3 7.1-1.3 10.6-2.5 0-1.7 1-3.4 0.9-5.1z"/>
									<path class="s1" d="m188 276.9q0 0 0-0.1c1.6-3.1 5.4-4.2 8.4-2.7l17.8 8.8-6.2 9.4c0 0-8.4-2.7-15.6-5.2-4.1-1.5-6.3-6.2-4.4-10.2z"/>
									<path class="s23" d="m189.6 274.9c1.4-1.3 3.5-1.8 5.4-1.4 1 0.1 1.9 0.6 2.8 0.9q1.3 0.6 2.6 1.3 2.5 1.3 5 2.7c1.7 0.9 3.3 1.9 4.9 2.9q-2.6-1.2-5.1-2.5c-1.7-0.9-3.4-1.8-5.1-2.6q-1.3-0.6-2.6-1.3c-0.8-0.4-1.7-0.8-2.6-1-1.8-0.4-3.8-0.1-5.3 1z"/>
									<path class="s23" d="m187.6 283.3c1.3 1.3 2.8 2.4 4.5 3.3 0.8 0.4 1.7 0.7 2.6 1l2.7 0.8c1.8 0.7 3.6 1.3 5.3 1.9q2.7 1 5.3 2-2.7-0.7-5.4-1.5c-1.8-0.6-3.6-1.2-5.4-1.8l-2.7-0.9c-0.9-0.3-1.8-0.6-2.6-1.1-1.7-1-3.2-2.2-4.3-3.7z"/>
									<path class="s17" d="m208.3 291.9l8.3-8-2.5-0.9z"/>
								</g>
							</g>
							<path class="s15" d="m247.7 285.8c0 0-1.9 1.3-1.8 2 0.2 0.6 1.9 0 3.1-0.8 0 0 2.6 0.6 2.8 0.8 0.3 0.1 1.6 0.3 1.6 0.3 0 0-4-3.3-5.7-2.3z"/>
							<path class="s15" d="m245.3 291.9c0 0 1.3 1.6 4.4 1.1 0 0 0.2-1.7-0.3-2.2 0 0-0.3-0.1-0.5 0.4 0 0 0.1-1-0.4-1.2-0.4-0.2-0.5 0.6-0.5 0.6 0 0 0-0.6-0.3-0.8-0.2-0.1-0.6 0.3-0.8 0.7 0 0-0.1-1-0.5-1-0.4 0-1 0.9-1.1 2.4z"/>
						</g>
					</g>
					<g>
						<g>
							<path class="s17" d="m197.7 403.6c0 0-0.8 2.7-0.6 3.7 0 0 10.1 0.2 10.6 0 0.5-0.3-4-3.2-5.7-3.7z"/>
							<path class="s16" d="m203.4 404h-6.6l1.8-80.3-2.7-14.3h5.2 6.6l2.3 15.8q0.4 2.5 0.1 5z"/>
						</g>
						<g>
							<path class="s17" d="m187.6 403.6c0 0-0.8 2.7-0.6 3.7 0 0 10.1 0.2 10.6 0 0.6-0.3-4-3.2-5.6-3.7z"/>
							<path class="s21" d="m188.8 323.7c0 0-0.1-7.1 1.1-10.5l1.4-3.8h6.7 9.7l-7.1 18.3-7 76.3h-6.6z"/>
						</g>
					</g>
					<g>
						<path class="s20" d="m205 261.9c0.7 0 1.4-0.4 1.4-0.4 0 0-1-2.7-1.7-4.4-0.4-3.5-1.3-6.6-2.3-6.9-2.3-0.9-7.3 0.2-9 2.2-0.9 0.9-0.9 4.3-0.7 7.5-0.9-0.5-2.1-0.2-2 1 0.2 1.5 1.7 2.4 2.3 2.7v8.6l7.8 2v-5.5c1.2-0.2 2.3-0.6 3-1.4 0.8-0.8 1.2-2.9 1.2-5.4z"/>
						<path class="s17" d="m200.8 268.7c0 0-3.7 0-5.2-2.4 0 0 2.1 4.9 5.2 4.5z"/>
						<path class="s17" d="m205.5 248.2c-0.6-0.7-1.4-1-3.4 0.3-2 1.2-3.6-2.6-8-0.9q-0.9 0.4-1.7 0.9c-1.8 1.3-2.9 3.4-3.3 5.6-1.6 9.1 3.9 12.2 3.9 12.2 0-0.9 0.1-1.8 0.1-2.7 0 0-2.9-1.2-2.2-3.4 0 0 0.5-0.7 1.7-0.4q0.6 0.5 1.4 0.6c1 0 3.8-5.4 3.8-5.4q0.4-1 0.6-2c0.1-0.6 0.9-0.8 1.5-0.9 0.6 0 1.2 0.2 1.7 0.4 0.6 0.2 1.1 0.4 1.7 0.4q0.3 0 0.6 0c0.3 0.9 0.5 2.1 0.5 2.1 1.2-0.8 1.1-2.3 0.9-3q0.2-0.2 0.3-0.5 0.2-0.4 0.2-0.8c0.1-0.9 0-2-0.3-2.5z"/>
					</g>
				</g>
			</g>
		</g>
		<g>
			<path class="s2" d="m452.5 393.6c0 2.9-14.1 2.8-31 2.8-16.8 0-30.1 0.1-30.1-2.8 0-2.9 13.7-3.5 30.6-3.5 16.9 0 30.5 0.6 30.5 3.5z"/>
			<g>
				<g>
					<g>
						<path class="s1" d="m417.4 297h-1.3l-5.4 93.4 7.1 0.1 8.3-76.5c-0.2-0.1-8.9-16.5-8.7-17z"/>
						<path class="s17" d="m417.4 390.5c0 0 0.8 2.6 0.6 3.6 0 0-10.1 0.2-10.6 0-0.6-0.2 4-3.2 5.7-3.6z"/>
						<path class="s17" d="m417.5 307.2l0.6 20.6c0.2 5 1.4 9.8 3.3 14.5q0 0.1 0 0.1c0 0.3-3.9-35.2-3.9-35.2z"/>
					</g>
					<g>
						<path class="s1" d="m416.4 297l10.3 93.5h7.1l-1.8-65c0 0 4.6-18.6-3.5-28.5z"/>
						<path class="s17" d="m432.7 390.5c0 0 0.8 2.6 0.6 3.6 0 0-10.1 0.2-10.6 0-0.5-0.2 4-3.2 5.7-3.6z"/>
					</g>
				</g>
				<g>
					<path class="s20" d="m424.9 272.1c-0.1-1.2-0.1-2.2-0.3-3.5-0.3-1.9-1.9-3.3-3.8-3.2-2.1 0-3.7 1.7-3.7 3.8v0.2c0 0.9 0.1 1.9 0.1 2.9q0 1.5-0.1 3.1c0 2-0.1 4-0.3 6.1q-0.5 6.1-1.7 12.1c-0.4 2-0.9 3.9-1.4 5.9-0.3 1-0.7 2-1 3v0.2c-1.3 3.6-3.6 9.5-6.5 11.8-1.8 0.9-3.9 2-3.6 2.5 0.6 0.9 2.7-0.1 3.1 0.4 0.4 0.5-2.6 1.6-5.5 1.6-0.4 0-0.6 0.4-0.3 0.7 1.3 0.9 4 2.3 7.8-0.3q0 0 0 0.1c1-0.6 2-1.4 3-2.4q0.2-0.1 0.3-0.3 0 0 0 0 0 0 0 0 0.1 0 0.1 0 0-0.1 0.1-0.2 0 0 0 0 0 0 0 0 0.2-0.2 0.4-0.4c1.3-1.6 2.5-3.3 3.5-4.8 0.8-1.2 1.6-2.4 2.2-3.6l0.1-0.2q0-0.2 0-0.2l0.6-1.1 0.7-1.5c0.5-1 0.9-2.1 1.3-3.1 0.8-2.1 1.6-4.2 2.2-6.4 1.2-4.3 2-8.7 2.5-13.1l0.2-3.4c0-1.1 0.1-2.2 0.1-3.3q0-1.7-0.1-3.4z"/>
					<path class="s20" d="m424.6 267.1c-0.6-1.8-2.5-2.9-4.4-2.3-1.8 0.5-2.8 2.5-2.4 4.4 1.6 6.2 3 18.7-8.6 33.3-0.6 0.8-1.5 1.4-2.4 1.7-1.6 0.6-3.8 1.5-3.5 2 0.4 0.7 2 0 2.3 0.4 0.3 0.5-2.7 1.2-5 0.9 0 0 2.4 3.4 6.9 0.4 3.3-2.1 6.4-4.7 8.9-7.7 5.5-6.8 12.9-19.3 8.2-33.1z"/>
					<path class="s21" d="m428.3 297c0 0-1.9-7.2 0.6-14.8 1.8-5.6 1.4-13.2-0.1-17.4-0.7-1.9-2.7-2.8-4.6-2.2l-3.9 1.2c-0.8 0.2-1.5 0.8-2 1.5-1.5 2.4-4.7 7.6-5.5 8.7-1.1 1.5 1.1 5.7 4.2 6.6l-0.6 16.4z"/>
					<g>
						<path class="s14" d="m397.5 320.9c-12.8 0-23.1-10.3-23.1-23 0-12.8 10.3-23.1 23.1-23.1 12.7 0 23 10.3 23 23.1 0 12.7-10.3 23-23 23z"/>
						<path class="s12" d="m417.4 297.9q-0.1 1.9-0.4 3.8c-1.6 7.9-7.8 14.1-15.7 15.6q-1.9 0.4-3.8 0.4-1.1 0-2.2-0.1c-4.1-0.5-7.8-2.1-10.7-4.7-1.9-1.6-3.5-3.6-4.7-5.8-1.5-2.8-2.3-5.9-2.3-9.2 0-11 8.9-19.9 19.9-19.9 3.3 0 6.5 0.8 9.2 2.3 2.3 1.2 4.2 2.7 5.9 4.6 2.5 3 4.2 6.7 4.6 10.8q0.2 1 0.2 2.2z"/>
						<path class="s13" d="m412.6 284.9l-28 28c-1.9-1.6-3.5-3.6-4.7-5.8l26.8-26.8c2.3 1.2 4.2 2.7 5.9 4.6z"/>
						<path class="s13" d="m417.4 297.9q-0.1 1.9-0.4 3.8l-15.7 15.6q-1.9 0.4-3.8 0.4-1.1 0-2.2-0.1l21.9-21.9q0.2 1 0.2 2.2z"/>
					</g>
					<path class="s20" d="m429.4 272.1c0-1.2-0.1-2.2-0.3-3.5-0.3-1.9-1.9-3.3-3.8-3.2-2.1 0-3.7 1.7-3.7 3.8v0.2c0.1 0.9 0.1 1.9 0.1 2.9q0 1.5-0.1 3.1c0 2-0.1 4-0.3 6.1q-0.5 6.1-1.7 12.1c-0.4 2-0.9 3.9-1.4 5.9-0.3 1-0.6 2-1 3v0.2c-1.3 3.6-3.6 9.5-6.5 11.8-1.8 0.9-3.9 2-3.6 2.5 0.6 0.9 2.7-0.1 3.1 0.4 0.4 0.5-2.6 1.6-5.5 1.6-0.4 0-0.5 0.4-0.3 0.7 1.3 0.9 4 2.3 7.8-0.3q0 0 0 0.1c1-0.6 2-1.4 3-2.4q0.2-0.1 0.3-0.3 0 0 0 0 0 0 0 0 0.1 0 0.1 0 0-0.1 0.1-0.2 0 0 0 0 0 0 0.1 0 0.1-0.2 0.3-0.4c1.3-1.6 2.5-3.3 3.5-4.8 0.8-1.2 1.6-2.4 2.2-3.6l0.1-0.2q0.1-0.2 0.1-0.2l0.5-1.1 0.7-1.5c0.5-1 0.9-2.1 1.4-3.1 0.7-2.1 1.5-4.2 2.1-6.4 1.2-4.3 2.1-8.7 2.5-13.1l0.2-3.4c0.1-1.1 0.1-2.2 0.1-3.3q0-1.7-0.1-3.4z"/>
				</g>
				<g>
					<path class="s20" d="m422.2 258.8c2.1-0.8 3.2-1.3 3.3-3.5 0.1-3.2 0.1-8.5-1-9.6-1.7-1.7-4.4-1.4-6.5-0.6-3.9 1.4-4.2 12.6-1.9 14.7 1.4 1.3 4-0.2 6.1-1z"/>
					<path class="s20" d="m420.3 265.7l5.8-2.3-0.6-8.4-6 0.4z"/>
					<path class="s20" d="m415 250.2c-0.4 1.5-1.6 4.1-1.6 4.1 0 0 1.1 0.9 1.6 0.7z"/>
					<path class="s17" d="m419.9 259.7l0.1 2.7c0 0 2.9-2.1 3.3-5 0 0-2.3 2.2-3.4 2.3z"/>
					<path class="s17" d="m417.7 245.4c0 0 1.7 5.4 6.5 5.7 0 0 2.3 0.7 1.7 2.3-0.5 1.6-4.6 6.2-2.3 10.6 2.4 4.5 4.8 5.7 4.6 8.5-0.2 2.8 1.2 3.9 1.2 3.9 0 0 6.2-1.4 4-7.4-2.2-6-2.8-10.3-2.1-12.6 0.7-2.3 1.8-10.7-4.1-13-5.9-2.4-15-1.5-11.9 5.8z"/>
					<path class="s20" d="m425.2 254.6c0 0 2-1 2.1-2.7 0.1-1.6-2.4-1.2-2.5 0.2z"/>
					<path class="s21" d="m426.7 254.8c0 0.6-0.5 1.2-1.1 1.3-0.7 0-1.2-0.5-1.3-1.1 0-0.7 0.5-1.3 1.1-1.3 0.7-0.1 1.2 0.4 1.3 1.1z"/>
				</g>
			</g>
		</g>
		<g>
			<g>
				<path class="s9" d="m137.6 182.2l-63.8 181.9h6.8l63.8-181.9z"/>
				<g>
					<path class="s9" d="m152.5 223.3l-0.8 1.7-2.5 5.1h-26.9l3-6.2 0.3-0.6z"/>
				</g>
				<g>
					<path class="s9" d="m135.8 273.1l-0.8 1.7-2.4 5.1h-26.9l2.9-6.2 0.3-0.6z"/>
				</g>
				<g>
					<path class="s9" d="m118.1 322.9l-0.9 1.7-2.4 5.1h-26.9l3-6.2 0.3-0.6z"/>
				</g>
				<path class="s9" d="m163 182.2l-63.8 181.9h6.8l63.8-181.9z"/>
			</g>
			<g>
				<g>
					<g>
						<path class="s17" d="m67.3 309.7c0 0-1.7 2.2-1.9 3.2 0 0 9.3 3.9 9.9 3.9 0.6 0-2.6-4.4-4-5.5z"/>
						<path class="s18" d="m72.5 311.8l-6.2-2.5 33.3-78.8c0 0 0.6-1.5 1.4-3.3 1.6-3.6 4.4-6.6 8-8.4l4.4 1.7-4.3 18z"/>
					</g>
					<g>
						<path class="s17" d="m104.3 317.9c0 0-1.2 2.5-1.2 3.5 0 0 9.9 1.8 10.5 1.7 0.6-0.2-3.5-3.8-5-4.5z"/>
						<path class="s19" d="m121.4 234.6q0-0.2 0.1-0.4c0.6-5.3-0.8-10.7-3.6-15.3l-7-1.1-4.7-0.8c0 0-5.1 3.4-6.2 10.6-0.3 1.7 0.7 3.3 2.2 4l6 2.7v0.1l-4.3 83.5 6.4 1z"/>
					</g>
				</g>
				<g>
					<path class="s15" d="m117.9 180.9c-1.9-1.1-3-1.8-2.7-4 0.5-3.2 1.4-8.4 2.7-9.3 1.9-1.3 4.5-0.6 6.4 0.5 3.6 2.1 2.1 13.1-0.5 14.9-1.6 1-4-0.9-5.9-2.1z"/>
					<path class="s15" d="m118.6 188.1l-5.3-3.2 2-8.3 5.8 1.4z"/>
					<path class="s15" d="m126.4 173.7c0.2 1.6 0.9 4.3 0.9 4.3 0 0-1.2 0.7-1.7 0.4z"/>
					<path class="s17" d="m120.1 182.2l-0.7 2.6c0 0-2.4-2.5-2.4-5.4 0 0 1.9 2.5 3.1 2.8z"/>
					<path class="s17" d="m115.9 172.8c4.8 2.4 5.6-4 5.6-4 0 0 3.7-1.4 4.5 2l0.4 2.3c0 0 1.9-5.3-2.1-7.4 0 0-3.1-4.1-7.2-0.9 0 0-4.9-0.6-5.6 3.3 0 0-6.3 3.6-4.7 9.4 0 0-2.4 1.8-3.1 4.9-1 4 1.8 7.7 5.9 8.2 1.6 0.3 3.2-0.1 4.4-2 2.2-3.6 1.9-9.4 1.4-13.4-0.1-1.3 0.5-2.4 0.5-2.4z"/>
					<path class="s15" d="m115.6 176.3c0 0-1.8-1.4-1.6-3 0.2-1.6 2.6-0.8 2.5 0.6z"/>
					<path class="s21" d="m114 176.3c-0.1 0.7 0.3 1.4 1 1.6 0.6 0.2 1.3-0.3 1.5-0.9 0.2-0.7-0.2-1.4-0.9-1.6-0.7-0.2-1.4 0.3-1.6 0.9z"/>
				</g>
				<g>
					<path class="s24" d="m167.3 178.6c-0.8-0.6-2.6-0.9-6.5 0-2.7 0.6-3.8 2.3-4.3 3.3-13 7.4-30.4 5.4-37.4 3.8-2.1-0.5-4.7-0.7-6.1 0.9-1.4 1.6-0.9 3.2-0.2 4.4 1.4 2.4 25.5 9 48.7-7.4 2.5-1.3 6.4-4.5 5.8-5z"/>
					<path class="s21" d="m106.2 217c0 0 3.1-6.7 1.9-14.6-0.9-5.8 0.7-13.3 2.8-17.2 1-1.7 3.1-2.4 4.9-1.5l3.6 1.8c0.8 0.4 1.4 1.1 1.8 1.9 1 2.5 3.5 8.2 4.1 9.5 0.7 1.5-2.1 5.3-5.2 5.8l-2 16.2z"/>
					<g>
						<path class="s15" d="m149.8 221.2c-2.1-1.8-4.2-1.7-5.2-1.5-13.8-6-22.5-21.1-25.4-27.7-0.9-2-2.3-4.2-4.4-4.4-2.1-0.2-3.1 1.2-3.6 2.5-1.1 2.5 7.9 25.8 34.9 34.7v-0.1c2.6 1.2 7.5 2.6 7.5 1.8 0-1-0.8-2.7-3.8-5.3z"/>
						<path class="s17" d="m112 194.4c0 0 3 7.6 7.5 12.5l-0.5 4.2c0 0-6.8-7.6-7-16.7z"/>
					</g>
				</g>
			</g>
		</g>
	</g>
	<g id="DESIGNED_BY_FREEPIK">
		<g id="XMLID_258_">
			<g id="XMLID_287_">
				<g id="XMLID_306_">
					<path id="XMLID_314_" class="s25" d="m260.1 465.5q-0.6 0.6-1.1 1.4l-0.5-0.2c0-0.3-0.3-0.5-0.6-0.5-0.4 0-0.6 0.3-0.6 0.7 0.1 0.3 0.4 0.5 0.7 0.5q0.1 0 0.2 0l0.4 0.2q-0.3 0.8-0.5 1.7l0.8 0.2c0.2-1.3 0.8-2.5 1.7-3.5z"/>
					<path id="XMLID_313_" class="s25" d="m265.6 463.2q-0.3 0-0.5 0l-0.1-0.6c0.2-0.2 0.3-0.4 0.3-0.7-0.1-0.4-0.4-0.7-0.8-0.6-0.4 0-0.7 0.4-0.6 0.8 0 0.2 0.1 0.4 0.4 0.5v0.7q-1 0.1-2 0.6l0.3 0.7q1.4-0.7 3-0.7 0.7 0 1.5 0.2l0.1-0.8q-0.8-0.1-1.6-0.1z"/>
					<path id="XMLID_312_" class="s25" d="m272.2 465.7c0.3 0 0.6-0.3 0.5-0.7 0-0.3-0.3-0.5-0.7-0.5-0.3 0.1-0.5 0.3-0.5 0.6l-0.4 0.4q-0.6-0.7-1.4-1.2l-0.4 0.7c1.1 0.7 2 1.7 2.6 2.9l0.6-0.3q-0.3-0.8-0.9-1.5l0.4-0.4q0.1 0 0.2 0z"/>
					<path id="XMLID_311_" class="s25" d="m265 473.4q-0.5 0-1.1 0c-0.9 0-1.7-0.1-2.5-0.2-0.4 0-0.8-0.1-1.3-0.3 1.1 1.9 3.1 3.2 5.4 3.2 2.9 0 5.3-2 6-4.5q-1.1 0.6-2.5 1.1c-1.2 0.3-2.5 0.6-4 0.7z"/>
					<path id="XMLID_307_" fill-rule="evenodd" class="s25" d="m271.6 469.9q0.1 0.3 0.1 0.6c-1.4 1.2-3.8 1.9-6.7 2.1-2.6 0.2-4.7-0.2-5.4-0.7q-0.1-0.6-0.1-1.3c0-3.3 2.7-5.9 6.1-5.9 3 0 5.6 2.2 6 5.2zm-6.3-0.6c0-1-0.8-1.8-1.9-1.8-1 0-1.8 0.8-1.8 1.8 0 1.1 0.8 1.9 1.8 1.9 1.1 0 1.9-0.8 1.9-1.9zm4.2-0.4c0-0.7-0.6-1.3-1.3-1.3-0.8 0-1.4 0.6-1.4 1.3 0 0.8 0.6 1.4 1.4 1.4 0.7 0 1.3-0.6 1.3-1.4z"/>
				</g>
				<path id="XMLID_304_" class="s25" d="m281.6 466.5c-0.3-0.1-0.8-0.3-1.4-0.2-0.5 0.1-0.8 0.4-0.8 1v0.9h2.2v1.7h-2.2v5.5h-2v-5.5h-1.3v-1.7h1.3v-0.9c0-1.7 0.9-2.8 2.6-2.8 0.6 0 1.2 0.1 1.6 0.3 0 0 0 1.7 0 1.7z"/>
				<path id="XMLID_302_" class="s25" d="m286.3 469.9q-0.3-0.1-0.5-0.1c-0.9 0-1.5 0.6-1.5 1.6v4h-2v-7.2h1.9v0.8c0.5-0.7 1.1-1 2-1 0.4 0 0.9 0.1 1.1 0.3z"/>
				<path id="XMLID_299_" fill-rule="evenodd" class="s25" d="m294 471.8c0 0.2-0.1 0.4-0.1 0.6h-5.1c0.3 1 1 1.5 1.9 1.5 0.6 0 1.3-0.3 1.8-0.7l1.1 1.2c-0.8 0.8-1.8 1.1-3 1.1-2.2 0-3.7-1.5-3.7-3.7 0-2.3 1.4-3.8 3.6-3.8 2 0 3.5 1.5 3.5 3.8zm-5.1-0.7h3.1c-0.2-0.9-0.7-1.4-1.5-1.4-0.9 0-1.5 0.5-1.6 1.4z"/>
				<path id="XMLID_296_" fill-rule="evenodd" class="s25" d="m301.6 471.8c0 0.2 0 0.4 0 0.6h-5.1c0.2 1 0.9 1.5 1.8 1.5 0.7 0 1.3-0.3 1.9-0.7l1.1 1.2c-0.8 0.8-1.9 1.1-3.1 1.1-2.2 0-3.7-1.5-3.7-3.7 0-2.3 1.5-3.8 3.6-3.8 2.1 0 3.5 1.5 3.5 3.8zm-5.1-0.7h3.2c-0.2-0.9-0.8-1.4-1.6-1.4-0.9 0-1.4 0.5-1.6 1.4z"/>
				<path id="XMLID_293_" fill-rule="evenodd" class="s25" d="m310 471.8c0 2.1-1.5 3.7-3.5 3.7-1 0-1.7-0.3-2.1-0.9v3.7h-1.9v-10.1h1.8v0.8c0.5-0.6 1.2-1 2.2-1 2 0 3.5 1.6 3.5 3.8zm-5.7 0c0 1.1 0.7 1.9 1.8 1.9 1.2 0 1.9-0.8 1.9-1.9 0-1.1-0.7-2-1.9-2-1.1 0-1.8 0.8-1.8 2z"/>
				<path id="XMLID_290_" class="s25" d="m313.1 465.8c0 0.7-0.6 1.3-1.3 1.3-0.7 0-1.2-0.6-1.2-1.3 0-0.7 0.5-1.2 1.2-1.2 0.7 0 1.3 0.5 1.3 1.2zm-0.3 9.6h-1.9v-7.2h1.9z"/>
				<path id="XMLID_288_" class="s25" d="m316 470.7l2.7-2.5h2.4l-3.5 3.4 3.5 3.8h-2.4l-2.7-2.9v2.9h-1.9v-10.7h1.9z"/>
			</g>
			<g id="XMLID_259_">
				<path id="XMLID_284_" fill-rule="evenodd" class="s25" d="m184.4 475.3v-1.1c-0.5 0.8-1.4 1.3-2.4 1.3-1.8 0-3.1-1.4-3.1-3.7 0-2.3 1.3-3.8 3.1-3.8 1 0 1.8 0.5 2.4 1.3v-3.8h1.1v9.8c0 0-1.1 0-1.1 0zm0-1.9v-3.2c-0.4-0.7-1.2-1.2-2.1-1.2-1.4 0-2.3 1.2-2.3 2.8 0 1.5 0.9 2.7 2.3 2.7 0.9 0 1.7-0.5 2.1-1.1z"/>
				<path id="XMLID_281_" fill-rule="evenodd" class="s25" d="m186.9 471.7c0-2 1.5-3.7 3.5-3.7 2.2 0 3.4 1.7 3.4 3.8v0.3h-5.7c0.1 1.3 1 2.5 2.5 2.5 0.8 0 1.7-0.4 2.2-0.9l0.5 0.7c-0.7 0.7-1.6 1.1-2.8 1.1-2.1 0-3.6-1.5-3.6-3.8zm3.5-2.8c-1.5 0-2.3 1.3-2.3 2.4h4.6c0-1-0.7-2.4-2.3-2.4z"/>
				<path id="XMLID_279_" class="s25" d="m194.6 474.4l0.6-0.8c0.4 0.5 1.3 1 2.3 1 1.1 0 1.7-0.5 1.7-1.2 0-1.8-4.4-0.7-4.4-3.3 0-1.1 0.9-2.1 2.6-2.1 1.2 0 2.1 0.5 2.7 1.1l-0.6 0.7c-0.4-0.5-1.2-0.9-2.1-0.9-0.9 0-1.5 0.5-1.5 1.1 0 1.6 4.3 0.6 4.3 3.3 0 1.2-0.9 2.2-2.7 2.2-1.2 0-2.2-0.4-2.9-1.1z"/>
				<path id="XMLID_276_" class="s25" d="m201.5 466.5c0-0.4 0.3-0.8 0.7-0.8 0.4 0 0.8 0.4 0.8 0.8 0 0.4-0.4 0.7-0.8 0.7-0.4 0-0.7-0.3-0.7-0.7zm0.2 8.8v-7.1h1.1v7.1z"/>
				<path id="XMLID_273_" fill-rule="evenodd" class="s25" d="m204.6 477.1l0.5-0.8c0.6 0.7 1.3 1 2.3 1 1.2 0 2.3-0.6 2.3-2.2v-1c-0.5 0.7-1.4 1.3-2.4 1.3-1.8 0-3.1-1.4-3.1-3.7 0-2.3 1.3-3.7 3.1-3.7 1 0 1.8 0.5 2.4 1.3v-1.1h1.1v6.9c0 2.3-1.6 3.1-3.4 3.1-1.2 0-2-0.3-2.8-1.1zm5.1-3.8v-3.1c-0.4-0.7-1.2-1.2-2.1-1.2-1.4 0-2.3 1.1-2.3 2.7 0 1.6 0.9 2.7 2.3 2.7 0.9 0 1.7-0.5 2.1-1.1z"/>
				<path id="XMLID_271_" class="s25" d="m217.4 475.3v-4.6c0-1.3-0.6-1.7-1.6-1.7-0.8 0-1.7 0.5-2.1 1.1v5.2h-1.1v-7.1h1.1v1c0.5-0.5 1.5-1.2 2.6-1.2 1.4 0 2.2 0.8 2.2 2.3v5z"/>
				<path id="XMLID_268_" fill-rule="evenodd" class="s25" d="m219.9 471.7c0-2 1.5-3.7 3.5-3.7 2.2 0 3.4 1.7 3.4 3.8v0.3h-5.7c0.1 1.3 1 2.5 2.5 2.5 0.8 0 1.7-0.4 2.2-0.9l0.5 0.7c-0.7 0.7-1.6 1.1-2.8 1.1-2.1 0-3.6-1.5-3.6-3.8zm3.5-2.8c-1.5 0-2.3 1.3-2.3 2.4h4.6c0-1-0.7-2.4-2.3-2.4z"/>
				<path id="XMLID_265_" fill-rule="evenodd" class="s25" d="m233.3 475.3v-1.1c-0.5 0.8-1.3 1.3-2.3 1.3-1.9 0-3.2-1.4-3.2-3.7 0-2.3 1.3-3.8 3.2-3.8 0.9 0 1.8 0.5 2.3 1.3v-3.8h1.1v9.8c0 0-1.1 0-1.1 0zm0-1.9v-3.2c-0.3-0.7-1.2-1.2-2.1-1.2-1.4 0-2.2 1.2-2.2 2.8 0 1.5 0.8 2.7 2.2 2.7 0.9 0 1.8-0.5 2.1-1.1z"/>
				<path id="XMLID_262_" fill-rule="evenodd" class="s25" d="m239.7 475.3v-9.8h1.1v3.8c0.6-0.8 1.4-1.3 2.4-1.3 1.8 0 3.1 1.5 3.1 3.8 0 2.3-1.3 3.7-3.1 3.7-1 0-1.9-0.5-2.4-1.3v1.1c0 0-1.1 0-1.1 0zm3.2-0.8c1.4 0 2.3-1.2 2.3-2.7 0-1.6-0.9-2.8-2.3-2.8-0.9 0-1.7 0.5-2.1 1.2v3.2c0.4 0.6 1.2 1.1 2.1 1.1z"/>
				<path id="XMLID_260_" class="s25" d="m247.5 477.1c0.2 0 0.5 0.1 0.6 0.1 0.5 0 0.8-0.2 1.1-0.8l0.5-1-3-7.2h1.2l2.3 5.8 2.4-5.8h1.2l-3.6 8.5c-0.4 1-1.1 1.4-2 1.5-0.3 0-0.6-0.1-0.8-0.1z"/>
			</g>
		</g>
	</g>
</svg>